<?xml version="1.0" encoding="UTF-8"?>
<svg version="1.1" xmlns="http://www.w3.org/2000/svg" width="804" height="116">
<path d="M0 0 C4.95 0 9.9 0 15 0 C15 10.23 15 20.46 15 31 C15.66 31 16.32 31 17 31 C17.185625 30.4225 17.37125 29.845 17.5625 29.25 C20.06339826 25.33555055 24.17180926 23.54845722 28.5 22.25 C36.29934935 21.47006506 43.64138939 22.03943431 50.27734375 26.546875 C56.62028554 31.88581297 60.96022671 37.59305255 62 46 C62.78709752 57.24595399 62.45847576 67.69770775 55.1875 76.9375 C50.43968902 81.94974603 44.92572218 84.68324199 38.046875 85.23828125 C29.45725206 85.43164954 23.93748045 84.54373241 17.5 78.75 C17.005 78.1725 16.51 77.595 16 77 C15.67 78.98 15.34 80.96 15 83 C10.05 83 5.1 83 0 83 C0 55.61 0 28.22 0 0 Z M18.34765625 41.4765625 C14.81911563 45.46534755 14.61325186 50.67639728 14.75 55.76171875 C15.44095784 61.94795065 18.35790305 66.05421759 23 70 C28.2064736 71.7354912 33.14934089 71.66344383 38.3125 69.8125 C42.2448173 67.16047205 44.49898186 64.50305441 46 60 C46.63113599 52.34359622 46.9406262 46.14240013 42 40 C34.616037 33.67088886 25.18723608 35.36459754 18.34765625 41.4765625 Z " fill="#000000" transform="translate(168,13)"/>
<path d="M0 0 C5.76756847 5.5277074 8.41185325 11.24610704 10 19 C10 22.96 10 26.92 10 31 C-10.79 31.495 -10.79 31.495 -32 32 C-28.82054771 38.58396962 -28.82054771 38.58396962 -23 42 C-18.8705425 42.71845846 -14.89723399 43.0377355 -11.12890625 40.9765625 C-9.3179367 39.53893026 -9.3179367 39.53893026 -7 37 C-6.01 36.01 -5.02 35.02 -4 34 C-0.04 36.31 3.92 38.62 8 41 C5.25720437 47.85698909 0.17453193 52.86863661 -6.625 56 C-15.32739614 58.66293322 -25.65843561 58.1650009 -33.85546875 54.25 C-41.16297089 49.99061806 -44.96119966 44.92348353 -48 37 C-50.50452334 27.0294609 -49.7198173 15.79069452 -44.74609375 6.7109375 C-40.50055074 0.53349889 -35.03605359 -3.36404735 -27.8125 -5.375 C-18.07620052 -7.10403249 -8.07053464 -5.94297718 0 0 Z M-30.375 13.5 C-32.27249418 15.92226929 -32.27249418 15.92226929 -32 19 C-23.42 19 -14.84 19 -6 19 C-8.27364931 12.40990584 -8.27364931 12.40990584 -13 9 C-20.2263925 7.23477435 -25.06420705 7.90969163 -30.375 13.5 Z " fill="#000000" transform="translate(708,41)"/>
<path d="M0 0 C5.83964119 4.76609099 9.35100533 10.90102954 10.6875 18.3125 C10.6875 22.6025 10.6875 26.8925 10.6875 31.3125 C-3.1725 31.3125 -17.0325 31.3125 -31.3125 31.3125 C-28.25870268 38.92192088 -28.25870268 38.92192088 -24.625 41.3125 C-19.36884078 42.89926505 -14.62249439 43.28783096 -9.5 41.125 C-6.78651807 39.00133459 -6.78651807 39.00133459 -3.3125 34.3125 C0.6475 36.2925 4.6075 38.2725 8.6875 40.3125 C7.23887099 46.10701606 3.62991761 50.16533039 -1.19140625 53.68359375 C-9.2324852 58.42487788 -19.3356256 58.74632645 -28.30859375 56.59375 C-37.472374 53.13466704 -41.99682965 48.43443921 -46.11328125 39.62890625 C-49.48567067 30.30265669 -49.37871922 19.18464891 -45.30859375 10.0625 C-41.1190489 2.76190699 -35.26259586 -1.94110325 -27.3125 -4.6875 C-17.60858627 -6.91131356 -8.25665607 -5.71734486 0 0 Z M-29.75 13.8125 C-31.57749947 16.24514597 -31.57749947 16.24514597 -31.3125 19.3125 C-22.7325 19.3125 -14.1525 19.3125 -5.3125 19.3125 C-7.31879931 12.85922637 -7.31879931 12.85922637 -12.3125 9.3125 C-19.38581327 7.60121453 -24.43125931 8.35738135 -29.75 13.8125 Z " fill="#000000" transform="translate(771.3125,40.6875)"/>
<path d="M0 0 C6.89259812 5.62820918 10.23018876 11.59861653 11.65625 20.33984375 C12.43294181 30.89986516 11.23471358 40.2002349 4.390625 48.5859375 C-2.24979871 55.30114075 -10.33316128 57.61639508 -19.65625 57.71484375 C-29.32993265 57.55266169 -36.53619603 55.10687912 -43.5859375 48.37109375 C-50.70124585 40.14895965 -51.82661336 30.95500136 -51.15625 20.3828125 C-50.01453123 11.87938624 -46.25049928 5.50322283 -39.71875 -0.03515625 C-28.38366913 -7.75677681 -11.23424679 -7.95759148 0 0 Z M-31.34375 13.33984375 C-35.11451999 18.5409058 -35.76833812 22.97102194 -35.34375 29.33984375 C-33.9542813 35.53357712 -31.54521025 38.76383982 -26.34375 42.33984375 C-21.32251084 44.01359014 -17.02142993 43.90028376 -12.15625 41.83984375 C-8.43386968 39.77265778 -6.60307036 37.52708834 -4.96484375 33.6171875 C-3.4867612 28.19755148 -3.56329378 22.74665729 -5.53125 17.46484375 C-7.80547813 13.54376077 -10.31315527 11.35514111 -14.34375 9.33984375 C-21.02081749 8.67431905 -26.18569682 8.56864456 -31.34375 13.33984375 Z " fill="#89888D" transform="translate(508.34375,40.66015625)"/>
<path d="M0 0 C4.95 0 9.9 0 15 0 C15.01981934 1.04865234 15.03963867 2.09730469 15.06005859 3.17773438 C15.13660773 7.09918676 15.22524568 11.02029172 15.31738281 14.94140625 C15.35547015 16.6327423 15.3903569 18.32415378 15.421875 20.015625 C15.46796898 22.45860606 15.52588559 24.90107681 15.5859375 27.34375 C15.59748871 28.08991577 15.60903992 28.83608154 15.62094116 29.6048584 C15.76069471 34.66998592 16.44455596 39.16143188 18 44 C22.16907892 46.32692777 26.29700387 46.41991037 31 46 C35.12654219 44.65093813 36.58733738 43.77660685 38.63989258 39.91381836 C40.29718361 35.76011431 40.47402984 31.87286714 40.51171875 27.44140625 C40.52966995 26.65225327 40.54762115 25.86310028 40.56611633 25.05003357 C40.61986528 22.5542418 40.65399965 20.05863728 40.6875 17.5625 C40.7207045 15.86000018 40.75519702 14.15752496 40.79101562 12.45507812 C40.87797311 8.30336379 40.93834013 4.15247363 41 0 C46.28 0 51.56 0 57 0 C57 19.47 57 38.94 57 59 C52.05 59 47.1 59 42 59 C42 56.69 42 54.38 42 52 C41.54109375 52.40992188 41.0821875 52.81984375 40.609375 53.2421875 C39.99578125 53.78101563 39.3821875 54.31984375 38.75 54.875 C38.14671875 55.40867188 37.5434375 55.94234375 36.921875 56.4921875 C30.69419004 61.37813546 23.5519848 60.62866891 16 60 C9.85733741 58.42905872 5.31447741 54.34116423 2 49 C-0.29056381 43.62242864 -0.2604028 38.74344242 -0.1953125 33.0078125 C-0.1924826 32.06187225 -0.18965271 31.11593201 -0.18673706 30.1413269 C-0.17558932 27.13575306 -0.15049465 24.13048298 -0.125 21.125 C-0.11496321 19.08073349 -0.10583859 17.03646228 -0.09765625 14.9921875 C-0.07566767 9.99467556 -0.04117509 4.9973892 0 0 Z " fill="#000000" transform="translate(239,37)"/>
<path d="M0 0 C0.94101562 0.00322266 1.88203125 0.00644531 2.8515625 0.00976562 C3.83640625 0.01814453 4.82125 0.02652344 5.8359375 0.03515625 C6.82851563 0.03966797 7.82109375 0.04417969 8.84375 0.04882812 C11.29950472 0.06063464 13.75522856 0.07857043 16.2109375 0.09765625 C16.2109375 4.38765625 16.2109375 8.67765625 16.2109375 13.09765625 C13.11848958 13.32552083 10.02604167 13.55338542 6.93359375 13.78125 C4.29983847 13.80183709 4.29983847 13.80183709 3.2109375 15.09765625 C2.97900885 16.61235073 2.79878512 18.13520187 2.6484375 19.66015625 C2.5040625 21.12453125 2.3596875 22.58890625 2.2109375 24.09765625 C7.4909375 24.09765625 12.7709375 24.09765625 18.2109375 24.09765625 C18.2109375 28.38765625 18.2109375 32.67765625 18.2109375 37.09765625 C12.9309375 37.09765625 7.6509375 37.09765625 2.2109375 37.09765625 C2.2109375 52.27765625 2.2109375 67.45765625 2.2109375 83.09765625 C-3.0690625 83.09765625 -8.3490625 83.09765625 -13.7890625 83.09765625 C-13.7890625 67.91765625 -13.7890625 52.73765625 -13.7890625 37.09765625 C-18.4090625 37.09765625 -23.0290625 37.09765625 -27.7890625 37.09765625 C-27.7890625 32.80765625 -27.7890625 28.51765625 -27.7890625 24.09765625 C-23.1690625 24.09765625 -18.5490625 24.09765625 -13.7890625 24.09765625 C-13.8303125 22.44765625 -13.8715625 20.79765625 -13.9140625 19.09765625 C-13.89440035 14.00516008 -13.55426339 9.8889158 -11.7890625 5.09765625 C-7.91527072 1.32070927 -5.31809763 -0.03203673 0 0 Z " fill="#89888D" transform="translate(435.7890625,12.90234375)"/>
<path d="M0 0 C1.39025391 0.02707031 1.39025391 0.02707031 2.80859375 0.0546875 C5.08117868 0.10154492 7.35322715 0.17327972 9.625 0.25 C9.625 4.54 9.625 8.83 9.625 13.25 C5.37695312 13.59179688 5.37695312 13.59179688 1.12890625 13.93359375 C-1.31140779 13.98211468 -1.31140779 13.98211468 -2.375 15.25 C-2.60692865 16.76469448 -2.78715238 18.28754562 -2.9375 19.8125 C-3.081875 21.276875 -3.22625 22.74125 -3.375 24.25 C1.575 24.25 6.525 24.25 11.625 24.25 C11.625 28.54 11.625 32.83 11.625 37.25 C6.675 37.25 1.725 37.25 -3.375 37.25 C-3.375 52.43 -3.375 67.61 -3.375 83.25 C-8.655 83.25 -13.935 83.25 -19.375 83.25 C-19.375 68.07 -19.375 52.89 -19.375 37.25 C-24.325 37.25 -29.275 37.25 -34.375 37.25 C-34.375 32.96 -34.375 28.67 -34.375 24.25 C-29.425 24.25 -24.475 24.25 -19.375 24.25 C-19.436875 22.06375 -19.49875 19.8775 -19.5625 17.625 C-19.71385786 12.27702214 -19.38325642 8.7529247 -16.375 4.25 C-11.27309577 -0.49084639 -6.5769712 -0.24393902 0 0 Z " fill="#000000" transform="translate(600.375,12.75)"/>
<path d="M0 0 C5.28 0 10.56 0 16 0 C16 5.94 16 11.88 16 18 C21.28 18 26.56 18 32 18 C32 22.29 32 26.58 32 31 C26.72 31 21.44 31 16 31 C16.33 41.56 16.66 52.12 17 63 C23.93 63.495 23.93 63.495 31 64 C31 68.29 31 72.58 31 77 C27.2904396 77.1352757 23.58583531 77.2342595 19.875 77.3125 C18.82828125 77.35439453 17.7815625 77.39628906 16.703125 77.43945312 C7.96857674 77.577658 7.96857674 77.577658 4.3828125 74.79296875 C0.01954452 69.67864645 -0.2840449 65.18382781 -0.1953125 58.63671875 C-0.1924826 57.84473587 -0.18965271 57.05275299 -0.18673706 56.23677063 C-0.17558863 53.72019001 -0.15049422 51.20397211 -0.125 48.6875 C-0.11496329 46.97591662 -0.10583864 45.26432763 -0.09765625 43.55273438 C-0.07566681 39.36835094 -0.04117408 35.18423686 0 31 C-4.62 31 -9.24 31 -14 31 C-14 26.71 -14 22.42 -14 18 C-9.38 18 -4.76 18 0 18 C0 12.06 0 6.12 0 0 Z " fill="#000000" transform="translate(372,19)"/>
<path d="M0 0 C5.28 0 10.56 0 16 0 C16 27.39 16 54.78 16 83 C10.72 83 5.44 83 0 83 C0 55.61 0 28.22 0 0 Z " fill="#000000" transform="translate(335,13)"/>
<path d="M0 0 C5.28 0 10.56 0 16 0 C16.33 1.65 16.66 3.3 17 5 C18.0828125 3.7625 18.0828125 3.7625 19.1875 2.5 C23.98033415 -1.61974848 30.06229399 -0.30294418 36 0 C36 4.62 36 9.24 36 14 C34.14375 14.0825 32.2875 14.165 30.375 14.25 C25.00515976 14.69378845 21.96889437 15.35290787 18 19 C16.73374576 22.79876271 16.76701453 26.42421926 16.68359375 30.38671875 C16.66281265 31.20372757 16.64203156 32.02073639 16.62062073 32.86250305 C16.55526921 35.47075034 16.49630727 38.07909775 16.4375 40.6875 C16.39430108 42.45639054 16.35068635 44.22527097 16.30664062 45.99414062 C16.19882044 50.32932597 16.09964028 54.66458802 16 59 C10.72 59 5.44 59 0 59 C0 39.53 0 20.06 0 0 Z " fill="#000000" transform="translate(619,37)"/>
<path d="M0 0 C4.95 0 9.9 0 15 0 C15 2.31 15 4.62 15 7 C15.66 7 16.32 7 17 7 C17.2475 6.21625 17.495 5.4325 17.75 4.625 C19.23303773 1.51062077 19.81981107 1.14486802 23 0 C26.234375 -0.1953125 26.234375 -0.1953125 29.75 -0.125 C32.84375 -0.063125 32.84375 -0.063125 36 0 C36 4.62 36 9.24 36 14 C31.55664062 14.24414062 31.55664062 14.24414062 27.11328125 14.48828125 C23.70936595 15.04777047 21.7630657 15.96278343 19 18 C16.42930383 21.85604425 16.64934944 25.12746343 16.5859375 29.60546875 C16.56657135 30.44467361 16.5472052 31.28387848 16.5272522 32.14851379 C16.46748787 34.82807258 16.42108388 37.5076744 16.375 40.1875 C16.3368173 42.00457599 16.29776539 43.82163394 16.2578125 45.63867188 C16.16178897 50.09230132 16.07774641 54.54601551 16 59 C10.72 59 5.44 59 0 59 C0 39.53 0 20.06 0 0 Z " fill="#88878D" transform="translate(529,37)"/>
<path d="M0 0 C3.09868415 -0.29140931 5.99425521 -0.39571098 9.09375 -0.36328125 C9.9962146 -0.36377975 10.8986792 -0.36427826 11.82849121 -0.36479187 C13.738385 -0.36244919 15.64828175 -0.35270927 17.55810547 -0.33618164 C20.48823536 -0.3125947 23.41745562 -0.31561839 26.34765625 -0.32226562 C28.20052628 -0.31668891 30.05339246 -0.30957908 31.90625 -0.30078125 C32.78647827 -0.30169266 33.66670654 -0.30260406 34.5736084 -0.30354309 C40.76898353 -0.23101647 40.76898353 -0.23101647 43 2 C43.25878906 4.03125 43.25878906 4.03125 43.265625 6.5 C43.26949219 7.8303125 43.26949219 7.8303125 43.2734375 9.1875 C43.26570313 10.115625 43.25796875 11.04375 43.25 12 C43.26160156 13.3921875 43.26160156 13.3921875 43.2734375 14.8125 C43.27085938 15.699375 43.26828125 16.58625 43.265625 17.5 C43.26336914 18.3146875 43.26111328 19.129375 43.25878906 19.96875 C43 22 43 22 41 24 C38.02211584 24.21236892 35.13963953 24.30395649 32.16015625 24.30078125 C30.84331093 24.30720894 30.84331093 24.30720894 29.49986267 24.31376648 C27.64127465 24.319515 25.78266413 24.32000621 23.92407227 24.31567383 C21.07724668 24.31251636 18.23146243 24.33595737 15.38476562 24.36132812 C13.58073048 24.36360128 11.77669254 24.36430454 9.97265625 24.36328125 C8.69286644 24.37709587 8.69286644 24.37709587 7.38722229 24.39118958 C1.42398996 24.34441779 1.42398996 24.34441779 -0.7255249 22.59831238 C-2.34384033 20.56879169 -2.37394807 19.44887389 -2.36328125 16.875 C-2.36263672 16.08609375 -2.36199219 15.2971875 -2.36132812 14.484375 C-2.34521484 13.66453125 -2.32910156 12.8446875 -2.3125 12 C-2.31572266 11.18015625 -2.31894531 10.3603125 -2.32226562 9.515625 C-2.26731366 3.4009705 -2.26731366 3.4009705 0 0 Z " fill="#000000" transform="translate(58,74)"/>
<path d="M0 0 C1.72447904 0.00031742 3.44897767 0.01165954 5.17333984 0.03173828 C6.53415176 0.03598312 6.53415176 0.03598312 7.92245483 0.04031372 C10.82652857 0.05152926 13.73029646 0.07663615 16.63427734 0.10205078 C18.60041873 0.11207881 20.56656494 0.12120497 22.53271484 0.12939453 C27.35835393 0.15147306 32.18376374 0.18601213 37.00927734 0.22705078 C39.25379263 4.2429373 39.27391049 7.77929139 39.19677734 12.28955078 C39.19613281 13.00949219 39.19548828 13.72943359 39.19482422 14.47119141 C39.16830597 17.64454215 39.0191127 20.19754472 38.00927734 23.22705078 C34.64288458 24.91024716 30.83687046 24.39021926 27.13427734 24.39501953 C26.25400879 24.39834793 25.37374023 24.40167633 24.46679688 24.40510559 C22.60400923 24.41017245 20.7412125 24.41251399 18.87841797 24.41235352 C16.02084509 24.41454192 13.16365697 24.43270531 10.30615234 24.45166016 C8.498862 24.45459368 6.69156982 24.45657875 4.88427734 24.45751953 C4.02592285 24.46470505 3.16756836 24.47189056 2.28320312 24.47929382 C-3.76189686 24.45587657 -3.76189686 24.45587657 -5.99072266 22.22705078 C-6.24951172 20.19580078 -6.24951172 20.19580078 -6.25634766 17.72705078 C-6.25892578 16.84017578 -6.26150391 15.95330078 -6.26416016 15.03955078 C-6.25255859 13.64736328 -6.25255859 13.64736328 -6.24072266 12.22705078 C-6.24845703 11.29892578 -6.25619141 10.37080078 -6.26416016 9.41455078 C-6.26158203 8.52767578 -6.25900391 7.64080078 -6.25634766 6.72705078 C-6.2540918 5.91236328 -6.25183594 5.09767578 -6.24951172 4.25830078 C-5.7233534 0.12845432 -3.89318297 0.22150129 0 0 Z " fill="#000000" transform="translate(114.99072265625,73.77294921875)"/>
<path d="M0 0 C0.85835449 0.00718552 1.71670898 0.01437103 2.60107422 0.02177429 C3.48134277 0.02223251 4.36161133 0.02269073 5.26855469 0.02316284 C7.13136135 0.02618648 8.99416546 0.03407609 10.85693359 0.0464325 C13.71444621 0.06466883 16.57163454 0.06694234 19.42919922 0.06669617 C21.2364937 0.07161208 23.04378597 0.07744072 24.85107422 0.08427429 C25.70942871 0.08538712 26.5677832 0.08649994 27.45214844 0.08764648 C33.49394641 0.13617914 33.49394641 0.13617914 35.72607422 1.25224304 C35.75494934 4.89805991 35.77283007 8.54384768 35.78857422 12.18974304 C35.79695313 13.23066101 35.80533203 14.27157898 35.81396484 15.34403992 C35.8171875 16.33339539 35.82041016 17.32275085 35.82373047 18.34208679 C35.82896729 19.25852966 35.8342041 20.17497253 35.83959961 21.1191864 C35.72607422 23.25224304 35.72607422 23.25224304 34.72607422 24.25224304 C31.63525957 24.35341225 28.56724867 24.39192862 25.47607422 24.38505554 C24.54762695 24.38601227 23.61917969 24.38696899 22.66259766 24.38795471 C20.69547457 24.38863659 18.72834926 24.38678176 16.76123047 24.38261414 C13.73904396 24.37726599 10.71700607 24.38255886 7.69482422 24.38896179 C5.78857389 24.38830101 3.88232365 24.38701985 1.97607422 24.38505554 C0.61047363 24.38809189 0.61047363 24.38809189 -0.78271484 24.39118958 C-7.1589761 24.36719273 -7.1589761 24.36719273 -8.27392578 23.25224304 C-8.52491502 19.78015497 -8.45914674 16.29483684 -8.46142578 12.81474304 C-8.47367187 11.83441101 -8.48591797 10.85407898 -8.49853516 9.84403992 C-8.50143555 8.43928406 -8.50143555 8.43928406 -8.50439453 7.00614929 C-8.50850342 6.14320251 -8.5126123 5.28025574 -8.5168457 4.39115906 C-7.93975337 -0.69015345 -4.2229396 0.01635864 0 0 Z " fill="#000000" transform="translate(91.27392578125,42.74775695800781)"/>
<path d="M0 0 C0.85835449 0.00718552 1.71670898 0.01437103 2.60107422 0.02177429 C3.48134277 0.02223251 4.36161133 0.02269073 5.26855469 0.02316284 C7.13136135 0.02618648 8.99416546 0.03407609 10.85693359 0.0464325 C13.71444621 0.06466883 16.57163454 0.06694234 19.42919922 0.06669617 C21.2364937 0.07161208 23.04378597 0.07744072 24.85107422 0.08427429 C25.70942871 0.08538712 26.5677832 0.08649994 27.45214844 0.08764648 C33.49394641 0.13617914 33.49394641 0.13617914 35.72607422 1.25224304 C35.75494934 4.89805991 35.77283007 8.54384768 35.78857422 12.18974304 C35.79695313 13.23066101 35.80533203 14.27157898 35.81396484 15.34403992 C35.8171875 16.33339539 35.82041016 17.32275085 35.82373047 18.34208679 C35.82896729 19.25852966 35.8342041 20.17497253 35.83959961 21.1191864 C35.72607422 23.25224304 35.72607422 23.25224304 34.72607422 24.25224304 C31.62356221 24.34098439 28.54339302 24.36742759 25.44091797 24.34989929 C24.51009903 24.34848434 23.57928009 24.3470694 22.62025452 24.34561157 C19.63466231 24.33999476 16.64914392 24.32743944 13.66357422 24.31474304 C11.64469509 24.30973021 9.62581479 24.30516693 7.60693359 24.30107117 C2.6466185 24.29001987 -2.31364111 24.272744 -7.27392578 24.25224304 C-9.10063775 20.5988191 -8.458633 16.27385145 -8.46142578 12.25224304 C-8.47367188 11.32411804 -8.48591797 10.39599304 -8.49853516 9.43974304 C-8.50046875 8.55286804 -8.50240234 7.66599304 -8.50439453 6.75224304 C-8.50850342 5.93755554 -8.5126123 5.12286804 -8.5168457 4.28349304 C-7.91908935 -0.71483146 -4.12411361 0.01597582 0 0 Z " fill="#000000" transform="translate(38.27392578125,42.74775695800781)"/>
<path d="M0 0 C0.88022827 0.00404846 1.76045654 0.00809692 2.6673584 0.01226807 C4.0210553 0.00939789 4.0210553 0.00939789 5.40209961 0.00646973 C7.31197386 0.00510748 9.22185736 0.00880669 11.13171387 0.01715088 C14.0617749 0.02784986 16.99122278 0.01725696 19.92126465 0.00445557 C21.77413059 0.00577715 23.62699615 0.00833953 25.4798584 0.01226807 C26.80020081 0.00619537 26.80020081 0.00619537 28.1472168 0 C34.3436918 0.04797647 34.3436918 0.04797647 36.5736084 2.27789307 C36.83239746 4.21734619 36.83239746 4.21734619 36.8392334 6.55914307 C36.84310059 7.82177979 36.84310059 7.82177979 36.8470459 9.10992432 C36.83931152 9.990354 36.83157715 10.87078369 36.8236084 11.77789307 C36.83520996 13.0985376 36.83520996 13.0985376 36.8470459 14.44586182 C36.84446777 15.28761963 36.84188965 16.12937744 36.8392334 16.99664307 C36.83697754 17.76943604 36.83472168 18.542229 36.83239746 19.33843994 C36.5736084 21.27789307 36.5736084 21.27789307 34.5736084 23.27789307 C31.51182067 23.47803459 28.54241547 23.55760378 25.4798584 23.54351807 C24.1261615 23.54638824 24.1261615 23.54638824 22.74511719 23.54931641 C20.83524294 23.55067866 18.92535944 23.54697944 17.01550293 23.53863525 C14.0854419 23.52793628 11.15599402 23.53852917 8.22595215 23.55133057 C6.37308621 23.55000898 4.52022065 23.5474466 2.6673584 23.54351807 C1.34701599 23.54959076 1.34701599 23.54959076 0 23.55578613 C-6.196475 23.50780967 -6.196475 23.50780967 -8.4263916 21.27789307 C-8.68518066 19.33843994 -8.68518066 19.33843994 -8.6920166 16.99664307 C-8.69459473 16.15488525 -8.69717285 15.31312744 -8.6998291 14.44586182 C-8.68822754 13.12521729 -8.68822754 13.12521729 -8.6763916 11.77789307 C-8.68412598 10.89746338 -8.69186035 10.01703369 -8.6998291 9.10992432 C-8.69725098 8.2681665 -8.69467285 7.42640869 -8.6920166 6.55914307 C-8.68976074 5.7863501 -8.68750488 5.01355713 -8.68518066 4.21734619 C-8.02196435 -0.75302209 -4.08498077 0.03162813 0 0 Z " fill="#000000" transform="translate(65.4263916015625,12.72210693359375)"/>
<path d="M0 0 C1.36560059 0.00303635 1.36560059 0.00303635 2.75878906 0.00613403 C3.68723633 0.00517731 4.61568359 0.00422058 5.57226562 0.00323486 C7.53938871 0.00255298 9.50651403 0.00440781 11.47363281 0.00857544 C14.49581932 0.01392358 17.51785721 0.00863071 20.54003906 0.00222778 C22.44628939 0.00288856 24.35253963 0.00416972 26.25878906 0.00613403 C27.16918945 0.0041098 28.07958984 0.00208557 29.01757812 0 C35.39383938 0.02399685 35.39383938 0.02399685 36.50878906 1.13894653 C36.6077843 2.68850212 36.6395843 4.24248326 36.64160156 5.79519653 C36.64353516 7.20478638 36.64353516 7.20478638 36.64550781 8.64285278 C36.64164063 9.63156372 36.63777344 10.62027466 36.63378906 11.63894653 C36.63958984 13.12201294 36.63958984 13.12201294 36.64550781 14.63504028 C36.64421875 15.57476685 36.64292969 16.51449341 36.64160156 17.48269653 C36.64047363 18.35088013 36.6393457 19.21906372 36.63818359 20.11355591 C36.50878906 22.13894653 36.50878906 22.13894653 35.50878906 23.13894653 C32.41797441 23.24011574 29.34996351 23.27863211 26.25878906 23.27175903 C25.3303418 23.27271576 24.40189453 23.27367249 23.4453125 23.2746582 C21.47818942 23.27534008 19.5110641 23.27348525 17.54394531 23.26931763 C14.5217588 23.26396948 11.49972092 23.26926236 8.47753906 23.27566528 C6.57128873 23.2750045 4.6650385 23.27372334 2.75878906 23.27175903 C1.39318848 23.27479538 1.39318848 23.27479538 0 23.27789307 C-6.37626125 23.25389622 -6.37626125 23.25389622 -7.49121094 22.13894653 C-7.59020617 20.58939094 -7.62200618 19.03540981 -7.62402344 17.48269653 C-7.6253125 16.54296997 -7.62660156 15.60324341 -7.62792969 14.63504028 C-7.6240625 13.64632935 -7.62019531 12.65761841 -7.61621094 11.63894653 C-7.62007813 10.6502356 -7.62394531 9.66152466 -7.62792969 8.64285278 C-7.62664062 7.70312622 -7.62535156 6.76339966 -7.62402344 5.79519653 C-7.62289551 4.92701294 -7.62176758 4.05882935 -7.62060547 3.16433716 C-7.33170273 -1.35780843 -3.71103458 0.01396636 0 0 Z " fill="#000000" transform="translate(117.4912109375,12.861053466796875)"/>
<path d="M0 0 C5.28 0 10.56 0 16 0 C16 19.47 16 38.94 16 59 C10.72 59 5.44 59 0 59 C0 39.53 0 20.06 0 0 Z " fill="#000000" transform="translate(308,37)"/>
<path d="M0 0 C8.58 0 17.16 0 26 0 C28.15767838 4.31535675 28.26732591 7.39478467 28.1875 12.0625 C28.18685547 12.78244141 28.18621094 13.50238281 28.18554688 14.24414062 C28.15902862 17.41749137 28.00983535 19.97049394 27 23 C24.33821779 24.3308911 22.31260604 24.11268993 19.3359375 24.09765625 C18.21445312 24.09443359 17.09296875 24.09121094 15.9375 24.08789062 C14.761875 24.07951172 13.58625 24.07113281 12.375 24.0625 C11.19164062 24.05798828 10.00828125 24.05347656 8.7890625 24.04882812 C5.85935361 24.03701478 2.92967059 24.0190789 0 24 C0 16.08 0 8.16 0 0 Z " fill="#000000" transform="translate(21,74)"/>
<path d="M0 0 C3.898125 0.0309375 3.898125 0.0309375 7.875 0.0625 C7.875 7.9825 7.875 15.9025 7.875 24.0625 C5.11125 24.124375 2.3475 24.18625 -0.5 24.25 C-1.80396729 24.29096802 -1.80396729 24.29096802 -3.13427734 24.33276367 C-5.1330965 24.35461768 -7.13163756 24.21170378 -9.125 24.0625 C-11.69551954 20.20672068 -11.38324956 17.02344577 -11.3125 12.5625 C-11.31185547 11.79035156 -11.31121094 11.01820312 -11.31054688 10.22265625 C-11.28483488 6.92580661 -11.17386 4.20908001 -10.125 1.0625 C-6.93953711 -0.53023144 -3.49300652 -0.03891833 0 0 Z " fill="#000000" transform="translate(146.125,42.9375)"/>
<path d="M0 0 C2.62195076 1.68073767 3.66412668 2.88508717 4.5625 5.8671875 C5.21175319 9.45160614 5.22406902 11.48464127 3.75 14.875 C2 17 2 17 -1 19 C-9.52267487 19.54112221 -9.52267487 19.54112221 -13 17 C-15.68209911 12.97685134 -15.68843415 9.72780081 -15 5 C-11.21211194 -1.26960783 -6.82896565 -1.73477757 0 0 Z " fill="#000000" transform="translate(321,12)"/>
</svg>
