<?xml version="1.0" encoding="UTF-8"?>
<svg version="1.1" xmlns="http://www.w3.org/2000/svg" width="753" height="114">
<path d="M0 0 C1.58206422 0.00574487 3.16410406 0.01876032 4.74609375 0.03515625 C7.53046875 0.05578125 10.31484375 0.07640625 13.18359375 0.09765625 C13.51359375 8.34765625 13.84359375 16.59765625 14.18359375 25.09765625 C16.82359375 23.77765625 19.46359375 22.45765625 22.18359375 21.09765625 C30.85943478 19.88950733 39.09637364 20.46526846 46.30078125 25.609375 C51.76568858 30.06337456 55.86852254 34.99144576 57.18359375 42.09765625 C57.89364261 51.85575631 58.47232453 60.98169135 52.18359375 69.09765625 C46.66789076 75.27195064 41.07746627 78.69503174 32.8125 79.375 C24.36267076 79.59854046 19.20918692 78.78138503 12.18359375 74.09765625 C12.18359375 75.41765625 12.18359375 76.73765625 12.18359375 78.09765625 C6.57359375 78.09765625 0.96359375 78.09765625 -4.81640625 78.09765625 C-4.83895786 68.0753746 -4.85732168 58.05310968 -4.86821842 48.03080845 C-4.8734471 43.37754439 -4.88054448 38.72429851 -4.8918457 34.07104492 C-4.90267511 29.58421079 -4.9086832 25.09739421 -4.91128349 20.61054802 C-4.91313765 18.89485332 -4.91675807 17.17915963 -4.92213631 15.46347237 C-4.92934746 13.06880712 -4.93039716 10.67421529 -4.92993164 8.27954102 C-4.93352692 7.56312943 -4.93712219 6.84671783 -4.94082642 6.1085968 C-4.9281599 0.1261044 -4.9281599 0.1261044 0 0 Z M14.80859375 40.53515625 C12.4347593 45.73933178 12.42698111 50.46938468 13.18359375 56.09765625 C14.98408766 60.0448929 16.41651465 61.58627018 19.99609375 63.97265625 C24.66371229 65.62005103 28.28941526 65.93461884 32.87109375 63.91015625 C36.43375185 61.1178026 38.74728235 58.40659044 40.18359375 54.09765625 C40.55203685 48.47889901 40.37549603 44.94054246 37.18359375 40.09765625 C33.76760006 37.01493024 31.55406089 35.2030768 26.93359375 34.84765625 C21.52102075 35.20849445 18.58347718 36.66093378 14.80859375 40.53515625 Z " fill="#000000" transform="translate(161.81640625,16.90234375)"/>
<path d="M0 0 C1.3096875 -0.00773438 2.619375 -0.01546875 3.96875 -0.0234375 C7.56723193 0.3825859 9.06537202 0.73748636 11.5 3.375 C11.75 6.5625 11.75 6.5625 11.5 9.375 C12.16 9.375 12.82 9.375 13.5 9.375 C13.603125 8.26125 13.70625 7.1475 13.8125 6 C14.039375 4.80375 14.26625 3.6075 14.5 2.375 C18.22921271 -0.11114181 21.18371682 0.04329945 25.5 0.0625 C26.22445312 0.04638672 26.94890625 0.03027344 27.6953125 0.01367188 C32.94857183 0.00882569 32.94857183 0.00882569 35.48828125 1.6953125 C37.01443513 4.2290815 36.69229961 6.4905059 36.5 9.375 C37.28375 9.478125 38.0675 9.58125 38.875 9.6875 C41.5 10.375 41.5 10.375 43.5 13.375 C43.75878906 16.421875 43.75878906 16.421875 43.765625 20.125 C43.76849518 21.10678223 43.76849518 21.10678223 43.77142334 22.10839844 C43.77278245 23.49023829 43.76910513 24.87209103 43.76074219 26.25390625 C43.75003809 28.3674796 43.76064601 30.48020305 43.7734375 32.59375 C43.77211586 33.93750187 43.76955336 35.28125322 43.765625 36.625 C43.76336914 37.84703125 43.76111328 39.0690625 43.75878906 40.328125 C43.5 43.375 43.5 43.375 41.5 46.375 C38.53169191 47.36443603 36.54831752 47.51275395 33.44946289 47.53613281 C31.90755028 47.55054413 31.90755028 47.55054413 30.33448792 47.56524658 C29.22508347 47.56949646 28.11567902 47.57374634 26.97265625 47.578125 C25.83219345 47.58382507 24.69173065 47.58952515 23.51670837 47.59539795 C21.10335214 47.60484805 18.68998299 47.61138197 16.27661133 47.61523438 C12.58066413 47.62495224 8.88527007 47.65598127 5.18945312 47.6875 C2.84635747 47.69402882 0.50325784 47.69927977 -1.83984375 47.703125 C-2.94722397 47.7154718 -4.05460419 47.7278186 -5.19554138 47.74053955 C-6.22663528 47.73753845 -7.25772919 47.73453735 -8.32006836 47.73144531 C-9.22591171 47.73509094 -10.13175507 47.73873657 -11.06504822 47.74249268 C-14.01579272 47.2971545 -15.38243422 46.45786275 -17.5 44.375 C-18.00170898 41.14453125 -18.00170898 41.14453125 -17.99609375 37.1875 C-17.99754898 36.48858643 -17.99900421 35.78967285 -18.00050354 35.06958008 C-17.99884533 33.59354479 -17.98729237 32.11749207 -17.96655273 30.64160156 C-17.93759891 28.38271627 -17.94594227 26.12617845 -17.95898438 23.8671875 C-17.95274661 22.43228026 -17.94435535 20.99738044 -17.93359375 19.5625 C-17.92384521 18.25667969 -17.91409668 16.95085938 -17.90405273 15.60546875 C-17.5 12.375 -17.5 12.375 -16.16040039 10.42578125 C-14.5 9.375 -14.5 9.375 -11.5 9.375 C-11.5825 8.446875 -11.665 7.51875 -11.75 6.5625 C-11.5 3.375 -11.5 3.375 -9.953125 1.69921875 C-6.55222156 -0.13661925 -3.84526755 -0.02270827 0 0 Z " fill="#000000" transform="translate(62.5,13.625)"/>
<path d="M0 0 C1.1240625 -0.00515625 2.248125 -0.0103125 3.40625 -0.015625 C8.35594475 0.40934879 8.35594475 0.40934879 10.5 2.25 C11.25 5.875 11.25 5.875 11.5 9.25 C12.32725586 9.22905273 13.15451172 9.20810547 14.00683594 9.18652344 C17.7544337 9.10338381 21.50183749 9.05134469 25.25 9 C26.55195312 8.96648438 27.85390625 8.93296875 29.1953125 8.8984375 C30.44570313 8.88554688 31.69609375 8.87265625 32.984375 8.859375 C34.13647461 8.83842773 35.28857422 8.81748047 36.47558594 8.79589844 C39.5 9.25 39.5 9.25 41.87402344 10.84863281 C44.04443918 14.05406964 44.01687801 16.20670008 44.03125 20.0625 C44.0350769 20.71323486 44.03890381 21.36396973 44.04284668 22.03442383 C44.04556076 23.40610304 44.03823453 24.77783444 44.02148438 26.14941406 C44.00006119 28.24401685 44.02129637 30.33519084 44.046875 32.4296875 C44.04423163 33.76563254 44.03910643 35.10157545 44.03125 36.4375 C44.02673828 37.64792969 44.02222656 38.85835937 44.01757812 40.10546875 C43.38955378 43.92101291 42.48756369 44.87324197 39.5 47.25 C36.98239136 47.73774719 36.98239136 47.73774719 34.12060547 47.7199707 C33.04624237 47.72289627 31.97187927 47.72582184 30.86495972 47.72883606 C29.71069489 47.71132797 28.55643005 47.69381989 27.3671875 47.67578125 C26.17900421 47.67249313 24.99082092 47.66920502 23.76663208 47.66581726 C21.25663777 47.65539683 18.74666759 47.63544783 16.23681641 47.60668945 C12.38300432 47.56259159 8.52981446 47.54525159 4.67578125 47.53320312 C2.23957429 47.51978041 -0.19662496 47.50485782 -2.6328125 47.48828125 C-3.79112579 47.48089432 -4.94943909 47.47350739 -6.14285278 47.46589661 C-7.74494095 47.44664375 -7.74494095 47.44664375 -9.37939453 47.42700195 C-10.32219269 47.41715775 -11.26499084 47.40731354 -12.23635864 47.39717102 C-14.5 47.25 -14.5 47.25 -16.5 46.25 C-16.5 34.37 -16.5 22.49 -16.5 10.25 C-15.18 9.92 -13.86 9.59 -12.5 9.25 C-12.2525 8.13625 -12.005 7.0225 -11.75 5.875 C-10.5 2.25 -10.5 2.25 -8.828125 1.0390625 C-5.80386854 0.01406283 -3.18989223 -0.01463253 0 0 Z " fill="#000000" transform="translate(31.5,52.75)"/>
<path d="M0 0 C1.11503906 -0.00773437 2.23007813 -0.01546875 3.37890625 -0.0234375 C6.71190682 0.41074648 8.1009574 0.99405754 10.4375 3.375 C11.1875 6.5625 11.1875 6.5625 11.4375 9.375 C12.7575 9.705 14.0775 10.035 15.4375 10.375 C15.4375 22.255 15.4375 34.135 15.4375 46.375 C12.90847978 47.63951011 11.13194478 47.5156959 8.30102539 47.53613281 C7.22973892 47.54574036 6.15845245 47.5553479 5.05470276 47.56524658 C3.89325241 47.56949646 2.73180206 47.57374634 1.53515625 47.578125 C0.34651474 47.58382507 -0.84212677 47.58952515 -2.06678772 47.59539795 C-4.58447374 47.60485676 -7.1021722 47.61138542 -9.61987305 47.61523438 C-13.48052416 47.62495098 -17.34064556 47.65597142 -21.20117188 47.6875 C-23.64322599 47.69402867 -26.08528393 47.69927968 -28.52734375 47.703125 C-29.68676987 47.7154718 -30.84619598 47.7278186 -32.04075623 47.74053955 C-33.11519485 47.73753845 -34.18963348 47.73453735 -35.29663086 47.73144531 C-36.24324081 47.73509094 -37.18985077 47.73873657 -38.16514587 47.74249268 C-40.5625 47.375 -40.5625 47.375 -42.36735535 46.05462646 C-44.34570761 43.27429957 -43.95225644 40.53756174 -43.9609375 37.1875 C-43.96380768 36.48858643 -43.96667786 35.78967285 -43.96963501 35.06958008 C-43.97167425 33.59357899 -43.96615403 32.11755079 -43.95361328 30.64160156 C-43.9375558 28.38284862 -43.9534647 26.12588482 -43.97265625 23.8671875 C-43.97067379 22.43228772 -43.96683006 20.99738905 -43.9609375 19.5625 C-43.95755371 18.25667969 -43.95416992 16.95085937 -43.95068359 15.60546875 C-43.5625 12.375 -43.5625 12.375 -42.4387207 10.4440918 C-39.64247649 8.85076019 -37.34443047 9.0385937 -34.14453125 9.08203125 C-32.89091797 9.09169922 -31.63730469 9.10136719 -30.34570312 9.11132812 C-29.03537109 9.13646484 -27.72503906 9.16160156 -26.375 9.1875 C-25.03972837 9.20255033 -23.70444063 9.21623813 -22.36914062 9.22851562 C-19.09985424 9.26392306 -15.83137907 9.3133111 -12.5625 9.375 C-12.44189209 8.42318848 -12.32128418 7.47137695 -12.19702148 6.49072266 C-11.5625 3.375 -11.5625 3.375 -9.41015625 1.5234375 C-6.08856695 0.18386651 -3.57591615 -0.02486153 0 0 Z " fill="#000000" transform="translate(119.5625,52.625)"/>
<path d="M0 0 C2.875 2.4375 2.875 2.4375 5 5 C5.70125 5.7425 6.4025 6.485 7.125 7.25 C12.14245827 14.60893879 12 20.87675669 12 30 C-1.86 30 -15.72 30 -30 30 C-26.33623787 35.8951314 -26.33623787 35.8951314 -21 39 C-15.3982416 39.8471324 -9.88377658 39.99342877 -5 36.875 C-4.01 36.25625 -3.02 35.6375 -2 35 C1.29816292 36.09073104 3.09057494 37.97479652 5.25 40.625 C5.77078125 41.25664063 6.2915625 41.88828125 6.828125 42.5390625 C7.40820312 43.26222656 7.40820312 43.26222656 8 44 C6.13082993 48.37972202 3.22507339 50.08097812 -1 52 C-9.79232772 55.53206853 -21.14215959 55.36512718 -30.125 52.375 C-38.45980185 48.75062404 -43.47347772 43.37913351 -47 35 C-49.27156328 25.78352987 -48.29495844 17.47589143 -44 9 C-39.70961669 2.51554724 -34.55762959 -1.20799743 -27.20703125 -3.578125 C-18.01900019 -5.3344212 -8.12799873 -4.85159614 0 0 Z M-28 13 C-28.99 15.31 -29.98 17.62 -31 20 C-22.09 20 -13.18 20 -4 20 C-6.72272634 12.91685951 -6.72272634 12.91685951 -12.109375 9.66015625 C-17.81155796 7.66910476 -23.69439805 8.7476852 -28 13 Z " fill="#000000" transform="translate(722,42)"/>
<path d="M0 0 C5.75224848 4.33574189 9.12743609 10.46368542 10.57421875 17.4765625 C11.07184876 21.69397684 11.05615398 24.57225908 10.01171875 28.75 C-3.51828125 29.08 -17.04828125 29.41 -30.98828125 29.75 C-27.64017128 35.40434963 -27.64017128 35.40434963 -21.98828125 37.75 C-15.47415368 38.45763588 -10.72727481 38.10941087 -4.98828125 34.75 C-0.98828125 34.75 -0.98828125 34.75 1.15234375 36.5 C1.8484375 37.2425 2.54453125 37.985 3.26171875 38.75 C3.968125 39.4925 4.67453125 40.235 5.40234375 41 C5.9334375 41.5775 6.46453125 42.155 7.01171875 42.75 C3.03377086 48.58432357 -1.05940618 51.23563048 -7.98828125 52.75 C-19.60888769 54.14828373 -30.42933074 53.29873781 -40.1328125 46.17578125 C-46.38279172 40.53106318 -49.0698009 34.29534007 -49.51025391 25.91577148 C-49.68417892 16.88948247 -48.06146447 10.26457379 -41.93359375 3.47265625 C-30.15290385 -7.79848824 -13.82943915 -8.69434289 0 0 Z M-30.86328125 13.8125 C-32.23934901 15.8089893 -32.23934901 15.8089893 -31.98828125 18.75 C-23.40828125 18.75 -14.82828125 18.75 -5.98828125 18.75 C-7.93851569 12.89929667 -8.28242856 11.92645056 -12.98828125 8.75 C-19.95857737 5.26485194 -26.0590214 8.52781417 -30.86328125 13.8125 Z " fill="#000000" transform="translate(659.98828125,43.25)"/>
<path d="M0 0 C5.61 0 11.22 0 17 0 C17.04898438 2.32417969 17.09796875 4.64835937 17.1484375 7.04296875 C17.20250732 9.3035301 17.25979112 11.56398885 17.31738281 13.82446289 C17.35557409 15.39079081 17.39044394 16.95720349 17.421875 18.52368164 C17.46774071 20.780418 17.52569769 23.03657583 17.5859375 25.29296875 C17.59748871 25.98899704 17.60903992 26.68502533 17.62094116 27.40214539 C17.76717315 32.26170932 18.31863463 36.12463093 21.625 39.8125 C25.0569329 41.52846645 28.2798028 41.54730535 32 41 C34.7834899 39.789787 36.39493111 38.88558384 38.10693359 36.37988281 C39.36925731 33.01598681 39.35737808 29.72011228 39.4140625 26.171875 C39.43342865 25.42286926 39.4527948 24.67386353 39.4727478 23.90216064 C39.53235716 21.51822164 39.57885354 19.13423386 39.625 16.75 C39.66319701 15.13018769 39.70224975 13.51039532 39.7421875 11.890625 C39.83964904 7.92718918 39.91936277 3.96395655 40 0 C45.94 0 51.88 0 58 0 C58 18.48 58 36.96 58 56 C52.39 56 46.78 56 41 56 C40.505 54.02 40.505 54.02 40 52 C39.071875 52.639375 38.14375 53.27875 37.1875 53.9375 C30.85901077 58.0324048 24.33271441 57.56651004 17 57 C10.65698014 55.42101213 6.61225644 52.52462749 3 47 C0.31994749 40.98903087 -0.41765064 36.22431806 -0.29296875 29.6875 C-0.28872391 28.83317383 -0.28447906 27.97884766 -0.28010559 27.09863281 C-0.26345703 24.39875318 -0.22583223 21.69964989 -0.1875 19 C-0.17243523 17.15756295 -0.15874998 15.31511407 -0.14648438 13.47265625 C-0.11616428 8.98123895 -0.05741945 4.49147734 0 0 Z " fill="#000000" transform="translate(227,39)"/>
<path d="M0 0 C0.70769531 -0.01224609 1.41539062 -0.02449219 2.14453125 -0.03710938 C6.25932929 -0.04860322 9.42660538 0.3528062 13.125 2.1875 C12.40491594 6.79603797 10.81204061 10.85987409 9.125 15.1875 C8.51011719 15.10371094 7.89523437 15.01992188 7.26171875 14.93359375 C6.45347656 14.83175781 5.64523437 14.72992188 4.8125 14.625 C4.01199219 14.52058594 3.21148438 14.41617187 2.38671875 14.30859375 C-0.04317116 14.03994822 -0.04317116 14.03994822 -2.875 15.1875 C-3.67712628 17.06137216 -3.67712628 17.06137216 -4.0625 19.25 C-4.330625 20.549375 -4.59875 21.84875 -4.875 23.1875 C-0.255 23.1875 4.365 23.1875 9.125 23.1875 C9.125 27.4775 9.125 31.7675 9.125 36.1875 C4.505 36.1875 -0.115 36.1875 -4.875 36.1875 C-4.875 50.0475 -4.875 63.9075 -4.875 78.1875 C-10.485 78.1875 -16.095 78.1875 -21.875 78.1875 C-21.875 64.3275 -21.875 50.4675 -21.875 36.1875 C-24.845 36.1875 -27.815 36.1875 -30.875 36.1875 C-30.875 31.8975 -30.875 27.6075 -30.875 23.1875 C-27.905 23.1875 -24.935 23.1875 -21.875 23.1875 C-21.9575 22.053125 -22.04 20.91875 -22.125 19.75 C-22.09774261 14.62561091 -20.68098296 10.46988678 -17.875 6.1875 C-12.43978737 0.98698973 -7.26558694 0.00654557 0 0 Z " fill="#000000" transform="translate(557.875,16.8125)"/>
<path d="M0 0 C5.61 0 11.22 0 17 0 C17 4.62 17 9.24 17 14 C21.62 14 26.24 14 31 14 C31 18.29 31 22.58 31 27 C26.38 27 21.76 27 17 27 C17.11360633 31.10477592 17.24036599 35.20840664 17.375 39.3125 C17.4059375 40.47974609 17.436875 41.64699219 17.46875 42.84960938 C17.50742187 43.96787109 17.54609375 45.08613281 17.5859375 46.23828125 C17.63306885 47.7857605 17.63306885 47.7857605 17.68115234 49.36450195 C17.82674629 52.22843236 17.82674629 52.22843236 20 55 C24.17660573 55.26518132 27.04340734 55.31886422 31 54 C31.70133599 55.57725347 32.385583 57.16211333 33.0625 58.75 C33.44535156 59.63171875 33.82820313 60.5134375 34.22265625 61.421875 C35.0655878 64.21752739 35.34759871 65.40629537 34 68 C28.1072532 71.43288032 20.57737151 70.56557016 14 70 C8.56972299 68.50059515 5.03692392 65.78899541 2 61 C0.01858024 56.9381339 -0.23494644 53.66642088 -0.1953125 49.16796875 C-0.18886719 47.87568359 -0.18242187 46.58339844 -0.17578125 45.25195312 C-0.15907327 43.8971327 -0.14214342 42.54231499 -0.125 41.1875 C-0.11496003 39.81315749 -0.10583596 38.43880797 -0.09765625 37.06445312 C-0.07411242 33.70945683 -0.04122567 30.35481801 0 27 C-2.97 27 -5.94 27 -9 27 C-9 22.71 -9 18.42 -9 14 C-6.03 14 -3.06 14 0 14 C0 9.38 0 4.76 0 0 Z " fill="#000000" transform="translate(357,26)"/>
<path d="M0 0 C5.61 0 11.22 0 17 0 C17 25.74 17 51.48 17 78 C11.39 78 5.78 78 0 78 C0 52.26 0 26.52 0 0 Z " fill="#000000" transform="translate(326,17)"/>
<path d="M0 0 C7.4832212 8.89896575 9.27625437 16.1180202 8.3125 27.75 C6.54496196 34.79133361 3.33213747 41.09905629 -2.8671875 45.1875 C-11.08310085 49.92848607 -18.74601154 50.93037791 -28.19140625 49.32421875 C-35.94912893 47.12507302 -41.57317478 42.17741343 -45.6875 35.3125 C-49.16414607 27.64273688 -49.1562935 17.1092348 -46.5 9.125 C-42.51879928 1.71172969 -37.34931047 -3.35018984 -29.3359375 -6.0390625 C-18.51442421 -8.61561328 -8.5844333 -7.18696741 0 0 Z M-34.48046875 6.65625 C-39.33156708 12.8324702 -40.35455908 17.97619616 -39.6875 25.75 C-38.40070539 32.7244268 -34.40323684 36.77433627 -28.6875 40.75 C-23.33344413 42.53468529 -16.89109806 42.79514547 -11.484375 41.03125 C-5.68094953 37.9024467 -2.25768676 33.17375128 -0.16796875 27.0546875 C1.12287025 20.86285814 0.27795794 14.79191234 -2.875 9.3125 C-5.95422637 4.95695662 -9.63044279 2.43568574 -14.6875 0.75 C-22.46525067 -0.09270478 -28.95200519 0.77849354 -34.48046875 6.65625 Z " fill="#000000" transform="translate(476.6875,46.25)"/>
<path d="M0 0 C0 5.28 0 10.56 0 16 C-2.289375 16.12375 -2.289375 16.12375 -4.625 16.25 C-9.38999963 16.74269826 -12.39353003 17.66401528 -16 21 C-17.85784951 25.4339605 -18.29146821 29.36726015 -18.4140625 34.1484375 C-18.43342865 34.80582916 -18.4527948 35.46322083 -18.4727478 36.14053345 C-18.53202461 38.21856135 -18.57871794 40.29664624 -18.625 42.375 C-18.66322778 43.7929915 -18.70228223 45.21096097 -18.7421875 46.62890625 C-18.83922356 50.08581595 -18.91919791 53.54252112 -19 57 C-24.61 57 -30.22 57 -36 57 C-36 38.52 -36 20.04 -36 1 C-30.72 1 -25.44 1 -20 1 C-19.67 2.65 -19.34 4.3 -19 6 C-18.29875 5.38125 -17.5975 4.7625 -16.875 4.125 C-11.08280084 -0.15619068 -7.40721808 0 0 0 Z " fill="#000000" transform="translate(608,38)"/>
<path d="M0 0 C5.94 0 11.88 0 18 0 C18 18.48 18 36.96 18 56 C12.06 56 6.12 56 0 56 C0 37.52 0 19.04 0 0 Z " fill="#000000" transform="translate(296,39)"/>
<path d="M0 0 C0.70382812 0.48597656 1.40765625 0.97195312 2.1328125 1.47265625 C1.7578125 4.41015625 1.7578125 4.41015625 1.1328125 7.47265625 C0.4728125 7.80265625 -0.1871875 8.13265625 -0.8671875 8.47265625 C-1.7025 8.00859375 -1.7025 8.00859375 -2.5546875 7.53515625 C-5.80854959 6.04013853 -8.32697369 6.15656573 -11.8671875 6.47265625 C-14.11116624 7.52487092 -14.11116624 7.52487092 -15.8671875 9.47265625 C-16.78062646 12.41781277 -16.78062646 12.41781277 -17.1171875 15.66015625 C-17.3646875 17.57828125 -17.6121875 19.49640625 -17.8671875 21.47265625 C-12.2571875 21.47265625 -6.6471875 21.47265625 -0.8671875 21.47265625 C-0.8671875 23.78265625 -0.8671875 26.09265625 -0.8671875 28.47265625 C-6.4771875 28.47265625 -12.0871875 28.47265625 -17.8671875 28.47265625 C-17.8671875 44.31265625 -17.8671875 60.15265625 -17.8671875 76.47265625 C-20.5071875 76.47265625 -23.1471875 76.47265625 -25.8671875 76.47265625 C-25.8671875 60.63265625 -25.8671875 44.79265625 -25.8671875 28.47265625 C-29.1671875 28.47265625 -32.4671875 28.47265625 -35.8671875 28.47265625 C-35.8671875 26.16265625 -35.8671875 23.85265625 -35.8671875 21.47265625 C-32.5671875 21.47265625 -29.2671875 21.47265625 -25.8671875 21.47265625 C-25.91359375 20.77140625 -25.96 20.07015625 -26.0078125 19.34765625 C-26.25484548 12.85421795 -25.99543031 7.70997922 -21.8671875 2.47265625 C-15.83272249 -2.55606459 -7.07857631 -3.77074024 0 0 Z " fill="#000000" transform="translate(427.8671875,18.52734375)"/>
<path d="M0 0 C0 2.97 0 5.94 0 9 C-1.381875 9.103125 -2.76375 9.20625 -4.1875 9.3125 C-8.16167561 9.73741186 -10.6841264 10.68893658 -14 13 C-14.66 13 -15.32 13 -16 13 C-20.09502264 22.36005176 -20.39841223 31.44988813 -20.625 41.5 C-20.66325297 42.90887638 -20.70230875 44.3177312 -20.7421875 45.7265625 C-20.83600533 49.15091327 -20.92170216 52.57526508 -21 56 C-23.64 56 -26.28 56 -29 56 C-29 37.85 -29 19.7 -29 1 C-26.36 1 -23.72 1 -21 1 C-20.67 3.31 -20.34 5.62 -20 8 C-19.278125 7.21625 -18.55625 6.4325 -17.8125 5.625 C-12.61934782 0.77805797 -6.95879781 0 0 0 Z " fill="#000000" transform="translate(526,39)"/>
<path d="M0 0 C3.0625 1.5625 3.0625 1.5625 5 4 C6.12338954 7.86165154 6.4060724 10.00737859 4.875 13.75 C2.64438814 16.42673424 1.26741304 17.72144707 -2 19 C-6.31590894 19.19301918 -9.81737379 18.692269 -13.5625 16.5 C-15.7547227 12.68743879 -15.84556798 9.28116402 -15 5 C-11.36154382 -0.94281176 -6.39188756 -1.11254529 0 0 Z " fill="#000000" transform="translate(310,13)"/>
</svg>
