<?xml version="1.0" encoding="UTF-8"?>
<svg version="1.1" xmlns="http://www.w3.org/2000/svg" width="819" height="123">
<path d="M0 0 C5.61 0 11.22 0 17 0 C17.495 14.355 17.495 14.355 18 29 C20.64 27.68 23.28 26.36 26 25 C35.33637753 22.66590562 44.59532427 23.12730635 53 28 C60.44170948 33.13864017 67.02115243 40.69069767 68.75 49.78515625 C69.9323575 60.26010471 69.18432263 69.88969588 63.08203125 78.80078125 C57.44523629 85.53500531 50.73302718 90.30377741 42 92 C32.67273778 92.7638073 24.81816497 91.29617627 17 86 C16.67 87.32 16.34 88.64 16 90 C10.72 90 5.44 90 0 90 C0 60.3 0 30.6 0 0 Z M21.1875 44.875 C17.02782854 50.8173878 16.11388251 55.81260257 17 63 C18.67525407 68.29742502 21.2167568 72.03894469 26 75 C31.06359834 77.41671739 35.65410167 77.44106824 41 76 C46.33986227 73.33521324 49.56097426 69.79379515 51.6875 64.1875 C52.82101574 56.25288979 51.58564718 51.06315986 47.25 44.25 C43.50975167 40.50975167 39.70893013 39.18309966 34.5 38.625 C29.04065241 39.2099301 24.84620303 40.71201825 21.1875 44.875 Z " fill="#000000" transform="translate(129,14)"/>
<path d="M0 0 C0.82450653 -0.00953201 1.64901306 -0.01906403 2.49850464 -0.02888489 C3.38603424 -0.02797348 4.27356384 -0.02706207 5.18798828 -0.02612305 C6.5621843 -0.03255074 6.5621843 -0.03255074 7.96414185 -0.03910828 C9.90251845 -0.04485178 11.84091661 -0.04535169 13.77929688 -0.04101562 C16.74012224 -0.03786116 19.69994313 -0.0612953 22.66064453 -0.08666992 C24.54475786 -0.08894351 26.42887386 -0.08964613 28.31298828 -0.08862305 C29.63820999 -0.10243767 29.63820999 -0.10243767 30.99020386 -0.11653137 C35.76221124 -0.08075448 39.02838858 0.13026487 42.88330078 3.2746582 C44.35328471 6.21462607 44.04786816 9.19074772 44.06030273 12.41479492 C44.06687393 13.14993317 44.07344513 13.88507141 44.08021545 14.64248657 C44.09995649 17.07977394 44.11161198 19.51699971 44.12158203 21.9543457 C44.12565756 22.78599369 44.12973309 23.61764168 44.13393211 24.47449112 C44.154795 28.87516279 44.16909649 33.27580324 44.1784668 37.67651367 C44.18953962 42.2253122 44.22394859 46.77362265 44.2636385 51.32224846 C44.28976146 54.81723959 44.2981547 58.31211358 44.30174828 61.80719376 C44.30662444 63.48415554 44.31826769 65.16111174 44.33678627 66.83797836 C44.36108986 69.18429209 44.36022959 71.52933182 44.35327148 73.87573242 C44.36608154 74.56886536 44.3788916 75.26199829 44.39208984 75.97613525 C44.35566079 79.34467357 44.10082666 81.00052731 41.97892761 83.67459106 C37.89142515 86.79550852 34.25579662 86.42922382 29.2902832 86.43579102 C28.40069412 86.44075592 27.51110504 86.44572083 26.59455872 86.45083618 C23.6426212 86.46547756 20.69073744 86.47226338 17.73876953 86.4777832 C15.69094338 86.48353338 13.64311725 86.48929113 11.59529114 86.49505615 C7.29700468 86.50557201 2.99873697 86.51141073 -1.29956055 86.51489258 C-6.80772708 86.52037607 -12.31564627 86.54439862 -17.82373524 86.57286453 C-22.05564599 86.59148792 -26.28749715 86.59669637 -30.51944542 86.59822845 C-32.55002888 86.60125659 -34.58061125 86.60929053 -36.61115456 86.62241364 C-39.45279368 86.63946642 -42.29382853 86.63759562 -45.13549805 86.63110352 C-46.39422226 86.64492569 -46.39422226 86.64492569 -47.67837524 86.6590271 C-52.30951682 86.62587966 -55.35626048 86.2863582 -59.11669922 83.2746582 C-61.1073043 79.29344805 -60.34545034 74.27692711 -60.36669922 69.8996582 C-60.38732422 68.84520508 -60.40794922 67.79075195 -60.42919922 66.7043457 C-60.43435547 65.68856445 -60.43951172 64.6727832 -60.44482422 63.6262207 C-60.45416992 62.69632324 -60.46351562 61.76642578 -60.47314453 60.80834961 C-60.04853171 57.79010859 -59.21963726 56.4545931 -57.11669922 54.2746582 C-54.1165401 53.27460516 -52.14246166 53.15890235 -49.01123047 53.17700195 C-48.02832031 53.18022461 -47.04541016 53.18344727 -46.03271484 53.18676758 C-44.49647461 53.19933594 -44.49647461 53.19933594 -42.92919922 53.2121582 C-41.37555664 53.21892578 -41.37555664 53.21892578 -39.79052734 53.22583008 C-37.23252656 53.2376181 -34.67464189 53.25407305 -32.11669922 53.2746582 C-32.1428833 52.66468994 -32.16906738 52.05472168 -32.19604492 51.42626953 C-32.30035641 48.64683062 -32.36512904 45.86780381 -32.42919922 43.0871582 C-32.47109375 42.12745117 -32.51298828 41.16774414 -32.55615234 40.17895508 C-32.67954677 33.04675717 -32.67954677 33.04675717 -29.84716797 29.16137695 C-25.26665253 25.99629976 -21.88953284 26.15692987 -16.36669922 26.2121582 C-14.61099609 26.22569336 -14.61099609 26.22569336 -12.81982422 26.23950195 C-11.92779297 26.25110352 -11.03576172 26.26270508 -10.11669922 26.2746582 C-10.15150391 24.96110352 -10.18630859 23.64754883 -10.22216797 22.29418945 C-10.25031388 20.55852519 -10.27761318 18.82284706 -10.30419922 17.0871582 C-10.32933594 16.2228418 -10.35447266 15.35852539 -10.38037109 14.46801758 C-10.43650793 9.58411276 -10.38240379 6.19502616 -7.11669922 2.2746582 C-4.06316784 0.23897062 -3.43786225 0.02186631 0 0 Z M-0.11669922 6.2746582 C-3.68834977 11.03120882 -3.68834977 11.03120882 -2.11669922 26.2746582 C10.75330078 26.2746582 23.62330078 26.2746582 36.88330078 26.2746582 C38.45495134 11.03120882 38.45495134 11.03120882 34.88330078 6.2746582 C32.2117022 5.97037154 29.77557264 5.85454408 27.10205078 5.8762207 C25.94811829 5.87191544 25.94811829 5.87191544 24.77087402 5.86752319 C23.14346583 5.86548058 21.51603319 5.87102429 19.88867188 5.88354492 C17.39283529 5.89959688 14.89861805 5.88370409 12.40283203 5.86450195 C10.82340136 5.86648435 9.2439717 5.87032796 7.66455078 5.8762207 C6.91556519 5.87014801 6.16657959 5.86407532 5.39489746 5.8578186 C3.06819651 5.85458714 3.06819651 5.85458714 -0.11669922 6.2746582 Z M-23.11669922 33.2746582 C-26.10184764 39.24495505 -24.11669922 46.5996634 -24.11669922 53.2746582 C-9.92669922 53.2746582 4.26330078 53.2746582 18.88330078 53.2746582 C18.88330078 46.6746582 18.88330078 40.0746582 18.88330078 33.2746582 C5.02330078 33.2746582 -8.83669922 33.2746582 -23.11669922 33.2746582 Z M26.88330078 33.2746582 C26.88330078 39.8746582 26.88330078 46.4746582 26.88330078 53.2746582 C30.18330078 53.2746582 33.48330078 53.2746582 36.88330078 53.2746582 C36.88330078 46.6746582 36.88330078 40.0746582 36.88330078 33.2746582 C33.58330078 33.2746582 30.28330078 33.2746582 26.88330078 33.2746582 Z M-53.11669922 61.2746582 C-53.39240528 64.19180622 -53.48895532 66.86334081 -53.42919922 69.7746582 C-53.43242188 70.55969727 -53.43564453 71.34473633 -53.43896484 72.15356445 C-53.57077847 76.69059112 -53.57077847 76.69059112 -51.11669922 80.2746582 C-49.05589778 80.56631903 -49.05589778 80.56631903 -46.66699219 80.50170898 C-45.2857869 80.50148239 -45.2857869 80.50148239 -43.87667847 80.50125122 C-42.38287155 80.48576736 -42.38287155 80.48576736 -40.85888672 80.4699707 C-39.33160446 80.46572586 -39.33160446 80.46572586 -37.77346802 80.46139526 C-34.51276021 80.45017591 -31.25232438 80.42506816 -27.99169922 80.3996582 C-25.78467193 80.38963067 -23.57764034 80.38050443 -21.37060547 80.37231445 C-15.95244695 80.35193011 -10.53487849 80.31278456 -5.11669922 80.2746582 C-5.11669922 73.3446582 -5.11669922 66.4146582 -5.11669922 59.2746582 C-11.47063884 59.22878138 -17.82400532 59.18894533 -24.17797852 59.16479492 C-26.34010768 59.15472869 -28.50222321 59.14107466 -30.66430664 59.1237793 C-33.76956547 59.09955842 -36.87464452 59.08818139 -39.97998047 59.0793457 C-40.94881668 59.06902313 -41.91765289 59.05870056 -42.91584778 59.04806519 C-44.26690865 59.04783859 -44.26690865 59.04783859 -45.64526367 59.04760742 C-46.438022 59.0431662 -47.23078033 59.03872498 -48.04756165 59.03414917 C-50.42473595 59.15146067 -50.42473595 59.15146067 -53.11669922 61.2746582 Z M2.88330078 59.2746582 C2.88330078 66.2046582 2.88330078 73.1346582 2.88330078 80.2746582 C7.24383819 80.34354908 11.60248663 80.40327118 15.96313477 80.43945312 C17.44627278 80.45453588 18.92936622 80.47500509 20.41235352 80.50097656 C22.54470823 80.53738436 24.67647313 80.55438893 26.80908203 80.56762695 C28.09210205 80.5833374 29.37512207 80.59904785 30.69702148 80.61523438 C33.8164389 80.52560178 33.8164389 80.52560178 35.80712891 79.02075195 C37.1398839 76.85835092 37.23011132 75.57475349 37.17626953 73.04418945 C37.16877686 72.32078369 37.16128418 71.59737793 37.15356445 70.85205078 C37.11259644 69.48342896 37.11259644 69.48342896 37.07080078 68.0871582 C37.00892578 65.1790332 36.94705078 62.2709082 36.88330078 59.2746582 C25.66330078 59.2746582 14.44330078 59.2746582 2.88330078 59.2746582 Z " fill="#000000" transform="translate(70.11669921875,21.725341796875)"/>
<path d="M0 0 C7.12978044 7.62720699 10.66633192 15.85453565 10.875 26.25 C10.6875 29.875 10.6875 29.875 9.6875 32.875 C-5.4925 32.875 -20.6725 32.875 -36.3125 32.875 C-32.50908018 42.20601857 -32.50908018 42.20601857 -28.6875 45 C-22.37467943 46.63665718 -16.64798832 47.0632309 -10.75 44.0625 C-8.16805314 41.92781683 -8.16805314 41.92781683 -6.3125 38.875 C-1.3401578 40.36670266 3.10595739 42.47957417 7.6875 44.875 C6.45463659 51.19342496 2.71394026 54.27818134 -2.3125 57.875 C-11.05295904 62.8004636 -21.90078585 63.25729985 -31.5 60.8125 C-40.44219049 57.72651131 -47.13939416 51.30330557 -51.3125 42.875 C-54.44935476 33.87405937 -55.03785893 22.4659453 -51.8125 13.375 C-47.64926951 4.80020596 -41.07366962 -1.43608648 -32.3125 -5.125 C-21.33159611 -8.70824232 -9.45695334 -6.06672478 0 0 Z M-34.125 13.875 C-35.56931226 16.08979091 -35.56931226 16.08979091 -36.3125 19.875 C-26.7425 19.875 -17.1725 19.875 -7.3125 19.875 C-8.30641106 14.90544471 -8.96638209 13.41232465 -12.3125 9.875 C-20.05611897 5.1363675 -28.28777111 7.43391985 -34.125 13.875 Z " fill="#000000" transform="translate(793.3125,44.125)"/>
<path d="M0 0 C7.64825154 5.59129236 12.00974726 11.02924178 15 20 C15 25.28 15 30.56 15 36 C-0.18 36 -15.36 36 -31 36 C-28.46643291 43.71617073 -28.46643291 43.71617073 -23 48 C-17.52540202 49.82486599 -11.9724833 49.71726665 -6.5625 47.75 C-4.05701339 46.03893598 -2.59096087 44.56321474 -1 42 C3.9723422 43.49170266 8.41845739 45.60457417 13 48 C10.73338789 54.610952 7.09303154 58.61498248 1 62 C-8.60167384 66.012128 -18.82467406 66.43340557 -28.6875 63.03515625 C-36.99829642 59.31495177 -43.17246143 52.62508808 -46.8125 44.3125 C-49.97973237 34.62114826 -49.7249238 24.46185024 -46 15 C-42.0725281 7.87688326 -35.50850383 1.09324178 -27.875 -1.9375 C-19.16601545 -4.36335902 -8.02375679 -4.58500388 0 0 Z M-27 15 C-30.00508738 18.62058376 -30.00508738 18.62058376 -31 23 C-21.43 23 -11.86 23 -2 23 C-3.88984878 17.33045367 -4.74950946 15.71917922 -9 12 C-15.09384568 8.95307716 -22.15534632 10.61674191 -27 15 Z " fill="#000000" transform="translate(714,41)"/>
<path d="M0 0 C7.98606308 6.45338431 11.96208798 13.98370022 13.06640625 24.16796875 C13.46124508 34.01346597 10.77679741 42.79664252 4.50390625 50.46875 C-2.68903758 57.77383326 -11.58345519 61.28134215 -21.75 61.625 C-31.91654481 61.28134215 -40.81096242 57.77383326 -48.00390625 50.46875 C-54.27536603 42.79839317 -56.96952162 34.00889783 -56.5625 24.1640625 C-55.40951189 13.4124484 -50.77444914 5.68173923 -42.375 -1.125 C-29.24428686 -10.12891758 -12.82272217 -8.83826048 0 0 Z M-34.83203125 13.93359375 C-38.8482462 19.31555326 -40.08180473 24.50049879 -39.25 31.25 C-37.67975118 36.92559815 -35.32099394 41.24047911 -30.23828125 44.375 C-25.12577975 46.62490243 -20.81083066 46.7182492 -15.5 45.125 C-10.01214801 41.95893154 -6.6746496 38.49858165 -4.69140625 32.4921875 C-3.59784394 26.93727808 -4.36860253 21.41565177 -6.9375 16.375 C-10.07139088 12.14001232 -13.27301742 9.90899419 -18.25 8.25 C-24.80717142 7.60714006 -30.25945735 9.0674719 -34.83203125 13.93359375 Z " fill="#89888D" transform="translate(500.25,44.75)"/>
<path d="M0 0 C5.61 0 11.22 0 17 0 C17.01458252 1.27641357 17.02916504 2.55282715 17.04418945 3.86791992 C17.1022354 8.61120379 17.17946828 13.35401607 17.26245117 18.09692383 C17.29567083 20.14827816 17.32371197 22.19972325 17.34643555 24.2512207 C17.3800357 27.20302949 17.43235476 30.15400886 17.48828125 33.10546875 C17.49467117 34.02023483 17.5010611 34.93500092 17.50764465 35.87748718 C17.61872065 40.70631184 17.81634582 44.11034521 21 48 C25.10792458 50.86599389 28.27865547 51.48530623 33.1015625 50.64453125 C36.31184696 49.55461986 37.97607758 47.63723225 40 45 C40.89383728 42.23704104 41.1428171 39.67532276 41.20532227 36.78222656 C41.22526749 35.96167786 41.24521271 35.14112915 41.26576233 34.29571533 C41.28247482 33.41953552 41.29918732 32.54335571 41.31640625 31.640625 C41.33718735 30.73624695 41.35796844 29.8318689 41.37937927 28.90008545 C41.4446594 26.01679945 41.50365952 23.1334239 41.5625 20.25 C41.60570571 18.29295956 41.64932065 16.33592812 41.69335938 14.37890625 C41.80031872 9.5860288 41.90164673 4.79306146 42 0 C47.28 0 52.56 0 58 0 C58 21.45 58 42.9 58 65 C53.05 65 48.1 65 43 65 C42.505 63.02 42.505 63.02 42 61 C41.46890625 61.34933594 40.9378125 61.69867188 40.390625 62.05859375 C39.33101562 62.74115234 39.33101562 62.74115234 38.25 63.4375 C37.55390625 63.88996094 36.8578125 64.34242187 36.140625 64.80859375 C30.44500614 67.9786006 23.59531609 67.83872901 17.37109375 66.38671875 C10.88764892 64.13978443 6.78819261 60.70444208 3 55 C-0.24177597 47.77968079 -0.14314081 39.90667758 -0.09765625 32.12890625 C-0.0962413 31.206577 -0.09482635 30.28424774 -0.09336853 29.33396912 C-0.08780506 26.41011202 -0.07525942 23.48633365 -0.0625 20.5625 C-0.05748028 18.57096465 -0.0529182 16.5794281 -0.04882812 14.58789062 C-0.03784762 9.72523044 -0.02060839 4.86262853 0 0 Z " fill="#000000" transform="translate(209,39)"/>
<path d="M0 0 C0 4.62 0 9.24 0 14 C-1.5675 14.0825 -3.135 14.165 -4.75 14.25 C-8.13780381 14.59500972 -9.71056467 14.80233685 -12.5625 16.75 C-14.37027119 19.27979552 -14.37027119 19.27979552 -15 24 C-10.38 24 -5.76 24 -1 24 C-1 28.95 -1 33.9 -1 39 C-5.62 39 -10.24 39 -15 39 C-15 55.5 -15 72 -15 89 C-20.61 89 -26.22 89 -32 89 C-32 72.5 -32 56 -32 39 C-35.63 39 -39.26 39 -43 39 C-43 34.05 -43 29.1 -43 24 C-39.37 24 -35.74 24 -32 24 C-31.938125 22.515 -31.87625 21.03 -31.8125 19.5 C-31.13504032 12.76356995 -28.40417885 8.4709616 -23.75 3.6875 C-17.22203811 -0.31829479 -7.34118897 -3.67059448 0 0 Z " fill="#000000" transform="translate(611,15)"/>
<path d="M0 0 C0 4.62 0 9.24 0 14 C-1.5675 14.0825 -3.135 14.165 -4.75 14.25 C-8.13780381 14.59500972 -9.71056467 14.80233685 -12.5625 16.75 C-14.37027119 19.27979552 -14.37027119 19.27979552 -15 24 C-10.38 24 -5.76 24 -1 24 C-1 28.95 -1 33.9 -1 39 C-5.62 39 -10.24 39 -15 39 C-15 55.5 -15 72 -15 89 C-20.61 89 -26.22 89 -32 89 C-32 72.5 -32 56 -32 39 C-35.63 39 -39.26 39 -43 39 C-43 34.05 -43 29.1 -43 24 C-39.37 24 -35.74 24 -32 24 C-31.938125 22.515 -31.87625 21.03 -31.8125 19.5 C-31.13504032 12.76356995 -28.40417885 8.4709616 -23.75 3.6875 C-17.22203811 -0.31829479 -7.34118897 -3.67059448 0 0 Z " fill="#88888D" transform="translate(436,15)"/>
<path d="M0 0 C5.28 0 10.56 0 16 0 C16 4.62 16 9.24 16 14 C20.95 14 25.9 14 31 14 C31 18.95 31 23.9 31 29 C26.05 29 21.1 29 16 29 C16.0970745 33.19974926 16.19988469 37.39854303 16.31738281 41.59765625 C16.35560024 43.02530398 16.39046572 44.45304563 16.421875 45.88085938 C16.46768401 47.93653868 16.5256498 49.99157554 16.5859375 52.046875 C16.63306885 53.90070801 16.63306885 53.90070801 16.68115234 55.79199219 C16.97944593 58.79320023 17.32787754 60.52599376 19 63 C23.29847056 65.45626889 25.64886608 65 31 65 C31 69.95 31 74.9 31 80 C13.98579545 80.45170455 13.98579545 80.45170455 5.75 74.75 C1.69189251 70.69189251 -0.11455772 66.57266114 -0.34057617 60.90063477 C-0.3401085 59.41414063 -0.32359692 57.92758489 -0.29296875 56.44140625 C-0.28872391 55.65225327 -0.28447906 54.86310028 -0.28010559 54.05003357 C-0.26344452 51.55382739 -0.22581779 49.05845808 -0.1875 46.5625 C-0.17243683 44.86003778 -0.15875129 43.15756279 -0.14648438 41.45507812 C-0.1135825 37.3030678 -0.06188951 33.1516753 0 29 C-3.63 29 -7.26 29 -11 29 C-11 24.05 -11 19.1 -11 14 C-8.69 13.34 -6.38 12.68 -4 12 C-0.6013717 8.03493365 -0.79038691 5.53270839 0 0 Z " fill="#000000" transform="translate(353,25)"/>
<path d="M0 0 C5.61 0 11.22 0 17 0 C17 29.7 17 59.4 17 90 C11.39 90 5.78 90 0 90 C0 60.3 0 30.6 0 0 Z " fill="#000000" transform="translate(314,14)"/>
<path d="M0 0 C4.95 0 9.9 0 15 0 C15.33 1.98 15.66 3.96 16 6 C16.928125 5.195625 17.85625 4.39125 18.8125 3.5625 C24.05298792 -0.9792562 29.35346807 -0.07819449 36 0 C36 4.62 36 9.24 36 14 C33.1846875 14.37125 33.1846875 14.37125 30.3125 14.75 C25.53440532 15.56041889 22.22100611 16.13479267 19 20 C16.84851054 25.06827383 16.66197735 29.70536436 16.5859375 35.1171875 C16.56657135 35.97434357 16.5472052 36.83149963 16.5272522 37.71463013 C16.46778744 40.43465428 16.42120431 43.15472152 16.375 45.875 C16.3367897 47.72658028 16.29773622 49.57814337 16.2578125 51.4296875 C16.16211336 55.95298425 16.07796094 60.47636416 16 65 C10.72 65 5.44 65 0 65 C0 43.55 0 22.1 0 0 Z " fill="#000000" transform="translate(622,39)"/>
<path d="M0 0 C4.95 0 9.9 0 15 0 C15.33 1.98 15.66 3.96 16 6 C16.928125 5.195625 17.85625 4.39125 18.8125 3.5625 C24.05298792 -0.9792562 29.35346807 -0.07819449 36 0 C36 4.62 36 9.24 36 14 C33.1846875 14.37125 33.1846875 14.37125 30.3125 14.75 C25.53440532 15.56041889 22.22100611 16.13479267 19 20 C16.84851054 25.06827383 16.66197735 29.70536436 16.5859375 35.1171875 C16.56657135 35.97434357 16.5472052 36.83149963 16.5272522 37.71463013 C16.46778744 40.43465428 16.42120431 43.15472152 16.375 45.875 C16.3367897 47.72658028 16.29773622 49.57814337 16.2578125 51.4296875 C16.16211336 55.95298425 16.07796094 60.47636416 16 65 C10.72 65 5.44 65 0 65 C0 43.55 0 22.1 0 0 Z " fill="#88878C" transform="translate(526,39)"/>
<path d="M0 0 C5.28 0 10.56 0 16 0 C16 21.45 16 42.9 16 65 C10.72 65 5.44 65 0 65 C0 43.55 0 22.1 0 0 Z " fill="#000000" transform="translate(283,39)"/>
<path d="M0 0 C2.23443348 -0.00966869 4.46793236 -0.04067264 6.70214844 -0.07226562 C8.13183049 -0.07879971 9.56151911 -0.08404859 10.99121094 -0.08789062 C12.93592285 -0.10190918 12.93592285 -0.10190918 14.91992188 -0.11621094 C18.81292797 0.27065191 21.19953352 1.18346945 24.50683594 3.24023438 C27.79174253 7.9527586 27.96941014 12.20359859 27.88183594 17.74023438 C27.8934375 18.47371094 27.90503906 19.2071875 27.91699219 19.96289062 C27.89131571 24.74727431 27.25123085 28.16558691 24.50683594 32.24023438 C20.45778227 35.3478946 16.91866088 35.67042962 11.97558594 35.60351562 C10.90528137 35.60426338 10.90528137 35.60426338 9.81335449 35.60502625 C8.3105998 35.6026945 6.80784056 35.59301916 5.30517578 35.57641602 C3.01396507 35.55280783 0.72391885 35.55586353 -1.56738281 35.5625 C-3.03223345 35.5569228 -4.49707922 35.54981266 -5.96191406 35.54101562 C-6.98242859 35.54238274 -6.98242859 35.54238274 -8.02355957 35.54377747 C-11.93006626 35.48597138 -15.03747717 35.11493668 -18.49316406 33.24023438 C-21.59230067 28.59152947 -20.90174169 23.83477665 -20.93066406 18.36523438 C-20.96353516 17.27597656 -20.99640625 16.18671875 -21.03027344 15.06445312 C-21.0843838 7.02660469 -21.0843838 7.02660469 -18.09082031 3.04492188 C-12.4921492 -0.84468121 -6.59234366 0.01728006 0 0 Z M-13.49316406 10.24023438 C-13.66487309 12.96720661 -13.72562086 15.57929905 -13.68066406 18.30273438 C-13.68001953 19.04845703 -13.679375 19.79417969 -13.67871094 20.5625 C-13.98138937 24.20041071 -13.98138937 24.20041071 -12.49316406 27.24023438 C-10.2866575 27.34035839 -8.0769402 27.37104617 -5.86816406 27.37304688 C-5.20606934 27.3740036 -4.54397461 27.37496033 -3.86181641 27.37594604 C-2.45963445 27.37662764 -1.05744936 27.37477479 0.34472656 27.37060547 C2.49779307 27.36525684 4.65065096 27.37055107 6.80371094 27.37695312 C8.1630864 27.37629234 9.52246173 27.37501117 10.88183594 27.37304688 C12.12707031 27.37191895 13.37230469 27.37079102 14.65527344 27.36962891 C17.40589024 27.56595564 17.40589024 27.56595564 18.50683594 26.24023438 C18.60670569 23.3968839 18.64561475 20.58326274 18.63183594 17.74023438 C18.63570312 16.94230469 18.63957031 16.144375 18.64355469 15.32226562 C19.01583203 11.47184118 19.01583203 11.47184118 17.50683594 8.24023438 C13.39106005 8.02234251 9.27218671 8.05444249 5.15112305 8.05493164 C3.0813333 8.05274704 1.01207801 8.03459946 -1.05761719 8.015625 C-2.35505859 8.01369141 -3.6525 8.01175781 -4.98925781 8.00976562 C-6.78641235 8.00360229 -6.78641235 8.00360229 -8.61987305 7.99731445 C-11.62306421 7.94011857 -11.62306421 7.94011857 -13.49316406 10.24023438 Z " fill="#858489" transform="translate(30.4931640625,9.759765625)"/>
<path d="M0 0 C5.28 0 10.56 0 16 0 C16 5.61 16 11.22 16 17 C10.72 17 5.44 17 0 17 C0 11.39 0 5.78 0 0 Z " fill="#000000" transform="translate(283,16)"/>
<path d="M0 0 C1.05049278 -0.00143509 1.05049278 -0.00143509 2.12220764 -0.00289917 C3.60417775 -0.00357996 5.08615085 -0.00173269 6.56811523 0.00244141 C8.83519206 0.00778313 11.10207004 0.00249721 13.36914062 -0.00390625 C14.80859419 -0.00324529 16.24804763 -0.00196377 17.6875 0 C18.99968506 0.00112793 20.31187012 0.00225586 21.66381836 0.00341797 C24.91015625 0.1328125 24.91015625 0.1328125 27.91015625 1.1328125 C27.91015625 1.7928125 27.91015625 2.4528125 27.91015625 3.1328125 C26.87608643 3.12233887 25.8420166 3.11186523 24.77661133 3.10107422 C20.9281767 3.06478506 17.07975711 3.04187965 13.23120117 3.02294922 C11.56776381 3.01291193 9.904344 2.99927919 8.2409668 2.98193359 C5.8454962 2.95758501 3.45025957 2.94630662 1.0546875 2.9375 C0.31491165 2.92717743 -0.4248642 2.91685486 -1.1870575 2.90621948 C-5.27316136 2.90533813 -8.41416605 3.30917155 -12.08984375 5.1328125 C-12.20578959 9.07006576 -12.27700839 13.00688173 -12.33984375 16.9453125 C-12.37335937 18.06486328 -12.406875 19.18441406 -12.44140625 20.33789062 C-12.45429688 21.41103516 -12.4671875 22.48417969 -12.48046875 23.58984375 C-12.50141602 24.57960205 -12.52236328 25.56936035 -12.54394531 26.58911133 C-12.2974191 29.19329667 -12.2974191 29.19329667 -10.55957031 30.95214844 C-7.13039413 32.59148177 -3.90839808 32.5813364 -0.18359375 32.56640625 C0.57812134 32.5716481 1.33983643 32.57688995 2.12463379 32.58229065 C3.73167708 32.58870096 5.33876734 32.58738664 6.94580078 32.57885742 C9.40221727 32.57034003 11.85631272 32.59913014 14.3125 32.63085938 C15.87630139 32.6324714 17.44010688 32.63189384 19.00390625 32.62890625 C19.73629517 32.64014023 20.46868408 32.65137421 21.2232666 32.66294861 C24.59468786 32.6169464 26.587655 32.3586942 29.37768555 30.40454102 C31.15816108 27.76517113 31.3911649 26.4452626 31.3359375 23.2890625 C31.32755859 22.37253906 31.31917969 21.45601562 31.31054688 20.51171875 C31.28154297 19.56167969 31.25253906 18.61164062 31.22265625 17.6328125 C31.21298828 16.68277344 31.20332031 15.73273437 31.19335938 14.75390625 C31.12802648 10.71462889 31.02550911 7.03514421 29.91015625 3.1328125 C33.27018735 6.20066698 33.86631312 8.31244 34.11328125 12.93359375 C34.13451814 14.43743122 34.14993397 15.94135982 34.16015625 17.4453125 C34.18078125 18.19232422 34.20140625 18.93933594 34.22265625 19.70898438 C34.25682203 24.57333752 33.7259931 27.98863522 30.91015625 32.1328125 C26.85995814 35.2392572 23.32246904 35.56301435 18.37890625 35.49609375 C17.30860168 35.49684151 17.30860168 35.49684151 16.2166748 35.49760437 C14.71392012 35.49527262 13.21116087 35.48559728 11.70849609 35.46899414 C9.41728538 35.44538596 7.12723916 35.44844166 4.8359375 35.45507812 C3.37108686 35.44950093 1.90624109 35.44239078 0.44140625 35.43359375 C-0.57910828 35.43496086 -0.57910828 35.43496086 -1.62023926 35.43635559 C-5.52674595 35.3785495 -8.63415686 35.00751481 -12.08984375 33.1328125 C-15.18898036 28.48410759 -14.49842138 23.72735478 -14.52734375 18.2578125 C-14.56021484 17.16855469 -14.59308594 16.07929688 -14.62695312 14.95703125 C-14.68106349 6.91918282 -14.68106349 6.91918282 -11.6875 2.9375 C-7.48030785 0.01460861 -5.14640434 0.00442756 0 0 Z " fill="#727076" transform="translate(24.08984375,9.8671875)"/>
<path d="M0 0 C0.65452148 -0.0004985 1.30904297 -0.00099701 1.98339844 -0.00151062 C3.36526531 0.00082668 4.74713669 0.0105351 6.12890625 0.02709961 C8.24257524 0.05069835 10.35498268 0.04765805 12.46875 0.04101562 C22.83111153 0.08402227 22.83111153 0.08402227 26.25 2.36328125 C26.62231445 4.30273438 26.62231445 4.30273438 26.61328125 6.64453125 C26.61263672 7.48628906 26.61199219 8.32804687 26.61132812 9.1953125 C26.59521484 10.07574219 26.57910156 10.95617188 26.5625 11.86328125 C26.56572266 12.74371094 26.56894531 13.62414063 26.57226562 14.53125 C26.51697032 21.09631093 26.51697032 21.09631093 24.25 23.36328125 C21.1171875 23.62207031 21.1171875 23.62207031 17.125 23.62890625 C16.4222998 23.6308197 15.71959961 23.63273315 14.99560547 23.63470459 C13.50943646 23.636066 12.02325555 23.63237257 10.53710938 23.62402344 C8.25884354 23.61332279 5.98136623 23.62391964 3.703125 23.63671875 C2.26041492 23.63539715 0.81770534 23.63283474 -0.625 23.62890625 C-1.94242188 23.62665039 -3.25984375 23.62439453 -4.6171875 23.62207031 C-7.75 23.36328125 -7.75 23.36328125 -9.75 21.36328125 C-10.19360072 18.40476016 -10.07412652 15.41379674 -10.0625 12.42578125 C-10.07861328 11.60142578 -10.09472656 10.77707031 -10.11132812 9.92773438 C-10.11197266 9.13431641 -10.11261719 8.34089844 -10.11328125 7.5234375 C-10.11626221 6.79777588 -10.11924316 6.07211426 -10.12231445 5.32446289 C-9.75 3.36328125 -9.75 3.36328125 -8.64916992 1.62597656 C-5.79052919 -0.27463918 -3.40377689 -0.00830299 0 0 Z M-7.75 4.36328125 C-7.92170903 7.09025348 -7.9824568 9.70234593 -7.9375 12.42578125 C-7.93685547 13.17150391 -7.93621094 13.91722656 -7.93554688 14.68554688 C-8.23822531 18.32345758 -8.23822531 18.32345758 -6.75 21.36328125 C-4.54349344 21.46340526 -2.33377614 21.49409305 -0.125 21.49609375 C0.53709473 21.49705048 1.19918945 21.4980072 1.88134766 21.49899292 C3.28352961 21.49967451 4.6857147 21.49782167 6.08789062 21.49365234 C8.24095713 21.48830371 10.39381502 21.49359795 12.546875 21.5 C13.90625046 21.49933921 15.2656258 21.49805804 16.625 21.49609375 C17.87023437 21.49496582 19.11546875 21.49383789 20.3984375 21.49267578 C23.14905431 21.68900252 23.14905431 21.68900252 24.25 20.36328125 C24.34986975 17.51993077 24.38877881 14.70630962 24.375 11.86328125 C24.37886719 11.06535156 24.38273437 10.26742188 24.38671875 9.4453125 C24.7589961 5.59488805 24.7589961 5.59488805 23.25 2.36328125 C19.13422411 2.14538939 15.01535077 2.17748937 10.89428711 2.17797852 C8.82449736 2.17579391 6.75524207 2.15764634 4.68554688 2.13867188 C3.38810547 2.13673828 2.09066406 2.13480469 0.75390625 2.1328125 C-1.04324829 2.12664917 -1.04324829 2.12664917 -2.87670898 2.12036133 C-5.87990015 2.06316545 -5.87990015 2.06316545 -7.75 4.36328125 Z " fill="#606062" transform="translate(24.75,15.63671875)"/>
<path d="M0 0 C1.05049278 -0.00143509 1.05049278 -0.00143509 2.12220764 -0.00289917 C3.60417775 -0.00357996 5.08615085 -0.00173269 6.56811523 0.00244141 C8.83519206 0.00778313 11.10207004 0.00249721 13.36914062 -0.00390625 C14.80859419 -0.00324529 16.24804763 -0.00196377 17.6875 0 C18.99968506 0.00112793 20.31187012 0.00225586 21.66381836 0.00341797 C24.91015625 0.1328125 24.91015625 0.1328125 27.91015625 1.1328125 C27.91015625 1.7928125 27.91015625 2.4528125 27.91015625 3.1328125 C26.87608643 3.12233887 25.8420166 3.11186523 24.77661133 3.10107422 C20.9281767 3.06478506 17.07975711 3.04187965 13.23120117 3.02294922 C11.56776381 3.01291193 9.904344 2.99927919 8.2409668 2.98193359 C5.8454962 2.95758501 3.45025957 2.94630662 1.0546875 2.9375 C0.31491165 2.92717743 -0.4248642 2.91685486 -1.1870575 2.90621948 C-5.27316136 2.90533813 -8.41416605 3.30917155 -12.08984375 5.1328125 C-12.14794035 9.0494168 -12.18347268 12.96591013 -12.21484375 16.8828125 C-12.23160156 17.99398438 -12.24835937 19.10515625 -12.265625 20.25 C-12.27207031 21.31992187 -12.27851563 22.38984375 -12.28515625 23.4921875 C-12.29562988 24.47670898 -12.30610352 25.46123047 -12.31689453 26.47558594 C-12.08473993 29.19254361 -11.48020648 30.81393763 -10.08984375 33.1328125 C-10.74984375 33.1328125 -11.40984375 33.1328125 -12.08984375 33.1328125 C-15.18898036 28.48410759 -14.49842138 23.72735478 -14.52734375 18.2578125 C-14.56021484 17.16855469 -14.59308594 16.07929688 -14.62695312 14.95703125 C-14.68106349 6.91918282 -14.68106349 6.91918282 -11.6875 2.9375 C-7.48030785 0.01460861 -5.14640434 0.00442756 0 0 Z " fill="#69696C" transform="translate(24.08984375,9.8671875)"/>
<path d="M0 0 C0.66 0 1.32 0 2 0 C2 5.61 2 11.22 2 17 C1.01 17.33 0.02 17.66 -1 18 C-0.505 9.09 -0.505 9.09 0 0 Z " fill="#121215" transform="translate(49,20)"/>
<path d="M0 0 C9.9 0 19.8 0 30 0 C30.33 0.99 30.66 1.98 31 3 C30.01 2.67 29.02 2.34 28 2 C25.86338742 1.84929203 23.72287876 1.7514034 21.58203125 1.68359375 C20.32841797 1.64169922 19.07480469 1.59980469 17.78320312 1.55664062 C15.81770508 1.49766602 15.81770508 1.49766602 13.8125 1.4375 C12.47720022 1.39429008 11.14191348 1.350675 9.80664062 1.30664062 C6.53786703 1.20043498 3.26901667 1.09839003 0 1 C0 0.67 0 0.34 0 0 Z " fill="#4E4E4F" transform="translate(20,17)"/>
</svg>
