<?xml version="1.0" encoding="UTF-8"?>
<svg version="1.1" xmlns="http://www.w3.org/2000/svg" width="950" height="170">
<path d="M0 0 C1.0181076 -0.0127597 2.03621521 -0.02551941 3.08517456 -0.03866577 C4.71968063 -0.04200424 4.71968063 -0.04200424 6.38720703 -0.04541016 C7.51772491 -0.05206696 8.6482428 -0.05872375 9.8130188 -0.06558228 C12.20182674 -0.0756964 14.59066286 -0.08039968 16.97949219 -0.08007812 C20.62498763 -0.08444864 24.26926962 -0.12077615 27.91455078 -0.15869141 C30.2387654 -0.16456038 32.56298576 -0.16852923 34.88720703 -0.17041016 C35.97282928 -0.18478119 37.05845154 -0.19915222 38.17697144 -0.21395874 C44.56474422 -0.17558978 48.70026746 0.25136987 53.77001953 4.29052734 C57.12008052 9.4444152 57.19935665 13.84411019 57.15820312 19.78076172 C57.16608856 21.18676384 57.16608856 21.18676384 57.1741333 22.62117004 C57.18730026 25.70904369 57.17860677 28.79639876 57.16845703 31.88427734 C57.17047871 34.03609313 57.17339093 36.18790824 57.17715454 38.33972168 C57.18157343 42.84536271 57.17516073 47.35082508 57.16113281 51.85644531 C57.14404134 57.62674938 57.15388483 63.39663481 57.1718502 69.16692352 C57.18269971 73.60906112 57.17923631 78.05109975 57.17146683 82.49324036 C57.16946806 84.6206721 57.17191273 86.74811287 57.17890549 88.87553406 C57.18653901 91.85069523 57.17488877 94.82518192 57.15820312 97.80029297 C57.16427582 98.67631668 57.17034851 99.55234039 57.17660522 100.45491028 C57.12462025 105.46783993 56.58826323 108.96736913 53.77001953 113.29052734 C49.1745667 116.83285557 45.69191564 118.41120656 39.93193054 118.43096924 C38.43682449 118.43953445 38.43682449 118.43953445 36.91151428 118.44827271 C35.81898849 118.44939056 34.72646271 118.45050842 33.60083008 118.45166016 C31.87361725 118.45910751 31.87361725 118.45910751 30.11151123 118.46670532 C26.29324755 118.48133864 22.47502542 118.48813088 18.65673828 118.49365234 C16.67677693 118.49794986 14.69681557 118.5022479 12.71685439 118.50662684 C7.19911056 118.51843753 1.68137679 118.52597504 -3.8363784 118.52942204 C-10.96666567 118.53390117 -18.0967611 118.55144333 -25.22699004 118.58042264 C-30.74217695 118.60205792 -36.25730996 118.61212732 -41.77253884 118.61346316 C-45.06477183 118.61450995 -48.35678355 118.62184119 -51.64898109 118.63828278 C-55.32367129 118.65532465 -58.99789381 118.65346723 -62.67260742 118.64697266 C-64.30228706 118.66079483 -64.30228706 118.66079483 -65.96488953 118.67489624 C-73.12168672 118.635245 -77.43544416 117.59688468 -83.06982422 112.94677734 C-86.82098836 108.07552611 -85.90741381 101.62417103 -85.79248047 95.79052734 C-85.8034375 94.58009766 -85.81439453 93.36966797 -85.82568359 92.12255859 C-85.73226586 80.80032907 -85.73226586 80.80032907 -81.22998047 76.29052734 C-76.74897636 73.60144101 -73.49847569 72.92855617 -68.30029297 72.99755859 C-67.01123047 73.00722656 -65.72216797 73.01689453 -64.39404297 73.02685547 C-63.04768261 73.05191546 -61.70132844 73.07731022 -60.35498047 73.10302734 C-58.98520341 73.1180923 -57.61541045 73.13177752 -56.24560547 73.14404297 C-52.90665688 73.17931355 -49.56852372 73.22860838 -46.22998047 73.29052734 C-46.24569092 72.53433105 -46.26140137 71.77813477 -46.27758789 70.99902344 C-46.34016094 67.55460158 -46.37904252 64.1102996 -46.41748047 60.66552734 C-46.44261719 59.47572266 -46.46775391 58.28591797 -46.49365234 57.06005859 C-46.58622344 46.01324067 -46.58622344 46.01324067 -43.22998047 41.29052734 C-38.87804019 37.16176349 -35.55535596 36.15319373 -29.68310547 36.19287109 C-28.83876953 36.19609375 -27.99443359 36.19931641 -27.12451172 36.20263672 C-25.81546875 36.21520508 -25.81546875 36.21520508 -24.47998047 36.22802734 C-23.14773437 36.23479492 -23.14773437 36.23479492 -21.78857422 36.24169922 C-19.60230718 36.25345334 -17.41617868 36.26988486 -15.22998047 36.29052734 C-15.26925659 35.065354 -15.26925659 35.065354 -15.30932617 33.81542969 C-15.4135426 30.0989928 -15.47838846 26.38286373 -15.54248047 22.66552734 C-15.584375 21.38033203 -15.62626953 20.09513672 -15.66943359 18.77099609 C-15.80762223 8.10283318 -15.80762223 8.10283318 -13.02294922 4.51708984 C-8.82613682 1.17137926 -5.33500935 0.04561897 0 0 Z M-6.22998047 11.29052734 C-6.22998047 19.54052734 -6.22998047 27.79052734 -6.22998047 36.29052734 C11.59001953 36.29052734 29.41001953 36.29052734 47.77001953 36.29052734 C47.77001953 28.04052734 47.77001953 19.79052734 47.77001953 11.29052734 C44.50963969 8.0301475 44.32386912 7.91447169 40.07080078 7.90234375 C39.11971436 7.89288727 38.16862793 7.88343079 37.1887207 7.87368774 C36.16367432 7.87976044 35.13862793 7.88583313 34.08251953 7.89208984 C33.02846924 7.88921967 31.97441895 7.88634949 30.88842773 7.88339233 C28.65917423 7.88135021 26.42990286 7.88689036 24.20068359 7.89941406 C20.78328485 7.91546504 17.36706888 7.89956976 13.94970703 7.88037109 C11.78564191 7.8823535 9.62157753 7.88619712 7.45751953 7.89208984 C6.43247314 7.88601715 5.40742676 7.87994446 4.35131836 7.87368774 C2.92468872 7.88787247 2.92468872 7.88787247 1.46923828 7.90234375 C0.63223389 7.90473053 -0.20477051 7.90711731 -1.06713867 7.90957642 C-3.66755065 8.15436813 -3.66755065 8.15436813 -6.22998047 11.29052734 Z M-37.22998047 48.29052734 C-37.22998047 56.54052734 -37.22998047 64.79052734 -37.22998047 73.29052734 C-17.09998047 73.29052734 3.03001953 73.29052734 23.77001953 73.29052734 C23.77001953 64.05052734 23.77001953 54.81052734 23.77001953 45.29052734 C16.26613501 45.22762611 8.76320442 45.16752172 1.25928497 45.13527679 C-2.23505423 45.11943103 -5.72917536 45.09825448 -9.22338867 45.06420898 C-13.2321179 45.02539454 -17.24061595 45.01082084 -21.24951172 44.99755859 C-22.50270706 44.98207474 -23.7559024 44.96659088 -25.04707336 44.95063782 C-26.20805038 44.95041122 -27.3690274 44.95018463 -28.56518555 44.94995117 C-29.58888748 44.94328934 -30.61258942 44.9366275 -31.66731262 44.92976379 C-34.62519169 45.08410816 -34.62519169 45.08410816 -37.22998047 48.29052734 Z M32.77001953 45.29052734 C32.77001953 54.53052734 32.77001953 63.77052734 32.77001953 73.29052734 C37.72001953 73.29052734 42.67001953 73.29052734 47.77001953 73.29052734 C47.77001953 64.05052734 47.77001953 54.81052734 47.77001953 45.29052734 C42.82001953 45.29052734 37.87001953 45.29052734 32.77001953 45.29052734 Z M-75.09518433 82.66055298 C-76.7148975 84.98704216 -76.60223485 86.72953897 -76.59326172 89.54443359 C-76.59261719 90.5634375 -76.59197266 91.58244141 -76.59130859 92.63232422 C-76.57519531 93.69515625 -76.55908203 94.75798828 -76.54248047 95.85302734 C-76.54570313 96.91972656 -76.54892578 97.98642578 -76.55224609 99.08544922 C-76.89715254 104.74580409 -76.89715254 104.74580409 -74.22998047 109.29052734 C-71.39627854 109.58417745 -71.39627854 109.58417745 -68.03613281 109.51757812 C-66.734935 109.51742706 -65.43373718 109.517276 -64.09310913 109.51712036 C-62.6673772 109.50690627 -61.24164682 109.49647427 -59.81591797 109.48583984 C-58.36146234 109.48211029 -56.9070042 109.47926305 -55.45254517 109.4772644 C-51.62199991 109.46962334 -47.79160601 109.44997092 -43.96112061 109.42785645 C-40.05336556 109.40740812 -36.14558608 109.39826487 -32.23779297 109.38818359 C-24.5684451 109.36672535 -16.89925326 109.3315395 -9.22998047 109.29052734 C-9.22998047 100.05052734 -9.22998047 90.81052734 -9.22998047 81.29052734 C-20.53171577 81.20328449 -20.53171577 81.20328449 -31.83349609 81.14404297 C-36.44240668 81.12610205 -41.05113865 81.10486709 -45.65991211 81.06420898 C-49.37519476 81.03163788 -53.09028591 81.01367917 -56.8057003 81.00589561 C-58.22391462 81.00034801 -59.64211834 80.9895149 -61.06025124 80.97333717 C-63.04486514 80.95159544 -65.02967133 80.95030222 -67.0144043 80.94995117 C-68.70984123 80.93995842 -68.70984123 80.93995842 -70.43952942 80.92976379 C-73.23456575 81.06237441 -73.23456575 81.06237441 -75.09518433 82.66055298 Z M-0.22998047 81.29052734 C-0.22998047 90.53052734 -0.22998047 99.77052734 -0.22998047 109.29052734 C6.28467988 109.33636936 12.79878359 109.37621557 19.31347656 109.40039062 C21.53094374 109.41046559 23.74839758 109.42412594 25.96582031 109.44140625 C29.14798265 109.46558898 32.32996978 109.47699531 35.51220703 109.48583984 C36.50807831 109.49616241 37.50394958 109.50648499 38.52999878 109.51712036 C39.45080231 109.51727142 40.37160583 109.51742249 41.3203125 109.51757812 C42.53942825 109.52423996 42.53942825 109.52423996 43.78317261 109.53103638 C46.00214629 109.46973855 46.00214629 109.46973855 47.77001953 107.29052734 C48.04846885 104.571184 48.04846885 104.571184 47.96533203 101.40771484 C47.96033691 100.35696777 47.9553418 99.3062207 47.95019531 98.22363281 C47.9319873 96.88445801 47.9137793 95.5452832 47.89501953 94.16552734 C47.85376953 89.91677734 47.81251953 85.66802734 47.77001953 81.29052734 C31.93001953 81.29052734 16.09001953 81.29052734 -0.22998047 81.29052734 Z " fill="#000000" transform="translate(103.22998046875,31.70947265625)"/>
<path d="M0 0 C5.94 0 11.88 0 18 0 C18.33 10.89 18.66 21.78 19 33 C21.64 31.35 24.28 29.7 27 28 C36.43773294 24.85408902 46.43898754 24.93617851 55.54296875 29.1875 C65.55520403 34.76163401 72.00934768 42.83898078 75.25 53.8125 C77.50195886 64.3352896 75.96356989 74.92889751 70.6796875 84.35546875 C65.15241756 92.16311508 58.09590466 98.31844948 48.67578125 100.55078125 C38.54313167 102.251883 28.25831323 101.43694288 19.69140625 95.36328125 C19.13324219 94.91339844 18.57507813 94.46351563 18 94 C17.67 95.65 17.34 97.3 17 99 C11.39 99 5.78 99 0 99 C0 66.33 0 33.66 0 0 Z M22.125 50.125 C18.53687131 55.81735331 17.39254316 62.15469041 18.625 68.75 C20.36429302 75.0313958 23.65205018 79.2975732 29 83 C34.52711523 84.84237174 40.81253429 85.02082235 46.390625 83.234375 C52.19306965 80.08953859 55.08832511 75.20193145 57 69 C57.98613903 62.71663625 57.47947719 57.26679032 54.2734375 51.71875 C51.33529956 47.75316506 47.5472915 44.91996752 43 43 C34.76557165 41.79564483 27.48700748 43.51237854 22.125 50.125 Z " fill="#000000" transform="translate(184,38)"/>
<path d="M0 0 C6.95736338 5.84956892 10.92883679 12.29737841 13.125 21.08203125 C13.125 26.36203125 13.125 31.64203125 13.125 37.08203125 C-3.705 37.08203125 -20.535 37.08203125 -37.875 37.08203125 C-34.6043364 45.92332642 -34.6043364 45.92332642 -27.6875 51.39453125 C-22.14811518 52.7486031 -16.89206729 52.79174011 -11.5 50.89453125 C-8.65816076 48.93230892 -6.85366284 46.89782068 -4.875 44.08203125 C-1.02474121 44.68558533 1.98601159 45.84975728 5.4375 47.64453125 C6.76201172 48.32708984 6.76201172 48.32708984 8.11328125 49.0234375 C8.77714844 49.37277344 9.44101562 49.72210938 10.125 50.08203125 C9.31782608 55.95703131 6.40228697 59.15088311 2.125 63.08203125 C-6.96363241 69.14704818 -17.22334221 69.95961377 -27.875 69.08203125 C-38.79898335 66.68773353 -46.37610691 60.92364479 -52.3984375 51.62890625 C-57.99048519 41.98336368 -58.41910706 30.67389097 -56.21875 19.85546875 C-52.85731456 9.5683172 -46.34847744 2.18699701 -36.875 -2.91796875 C-24.97492437 -8.0383911 -10.89404187 -7.26762847 0 0 Z M-35.875 17.08203125 C-36.535 19.06203125 -37.195 21.04203125 -37.875 23.08203125 C-27.315 23.08203125 -16.755 23.08203125 -5.875 23.08203125 C-7.00926174 17.41072256 -8.66813364 14.87799438 -12.875 11.08203125 C-21.7211889 6.9297385 -29.75377768 9.5616724 -35.875 17.08203125 Z " fill="#000000" transform="translate(913.875,69.91796875)"/>
<path d="M0 0 C8.5835535 7.30623899 12.76675217 14.90924277 14.125 26.046875 C13.795 29.676875 13.465 33.306875 13.125 37.046875 C-3.705 37.046875 -20.535 37.046875 -37.875 37.046875 C-34.27497416 45.73467395 -34.27497416 45.73467395 -27.875 51.046875 C-22.46866608 52.84898631 -16.91923876 52.77971531 -11.5625 50.859375 C-8.61348214 48.87050249 -6.27826294 46.66219055 -3.875 44.046875 C1.60432789 45.59232646 6.23929181 48.20230712 11.125 51.046875 C8.6011356 57.77718006 3.32970002 62.61081864 -2.84375 66.1875 C-12.33006145 70.43137618 -24.68224433 70.66096885 -34.43359375 67.20703125 C-44.61393685 62.36933221 -50.53557912 55.88559194 -54.8984375 45.64453125 C-58.417736 35.68394788 -58.04017723 24.73796466 -53.875 15.046875 C-51.27140755 9.96494884 -48.17861525 5.8381551 -43.875 2.046875 C-43.14023437 1.39912109 -43.14023437 1.39912109 -42.390625 0.73828125 C-30.54213012 -8.76872536 -12.32009755 -8.36963149 0 0 Z M-35.7109375 17.23046875 C-37.15857452 19.27661374 -37.15857452 19.27661374 -37.875 23.046875 C-27.315 23.046875 -16.755 23.046875 -5.875 23.046875 C-6.92003099 16.77668907 -7.20202381 15.80557324 -11.875 12.046875 C-21.70020639 6.95882169 -28.80774819 8.97986549 -35.7109375 17.23046875 Z " fill="#000000" transform="translate(831.875,69.953125)"/>
<path d="M0 0 C7.98204716 7.10108543 12.43615158 15.51283241 13.23828125 26.1640625 C13.49138396 37.96664155 11.06195562 47.18223604 3 56 C-4.65453939 63.93054442 -13.66946711 67.07704195 -24.5625 67.3125 C-36.5959594 67.17418437 -45.39600359 63.3983862 -54 55 C-60.66813914 47.6426061 -63.39920829 38.17859348 -63.2109375 28.33203125 C-62.07413967 15.7640997 -56.97562002 6.81463049 -47.4375 -1.2734375 C-32.90784102 -11.56527927 -14.16095613 -9.77481927 0 0 Z M-39.8125 15.875 C-43.8648376 21.66405372 -44.75079225 27.07863395 -44 34 C-42.47085954 40.66609669 -39.33893523 44.67011481 -33.69921875 48.60546875 C-28.96108577 51.05338984 -24.19309003 50.70723016 -19 50 C-12.71424354 47.71519353 -9.78231532 43.89850847 -7 38 C-6.67 37.34 -6.34 36.68 -6 36 C-5.30598669 28.60477624 -5.35724422 22.059876 -10 16 C-14.5004113 11.32570917 -18.12417532 8.88298241 -24.75 8.6875 C-31.3090439 8.77342634 -35.38192739 10.98076281 -39.8125 15.875 Z " fill="#89888D" transform="translate(594,72)"/>
<path d="M0 0 C5.94 0 11.88 0 18 0 C18.00410889 1.4226416 18.00821777 2.8452832 18.01245117 4.31103516 C18.03425922 9.60046379 18.08856746 14.88915035 18.15258789 20.17822266 C18.17575309 22.46525956 18.19016011 24.75240292 18.19555664 27.03955078 C18.20485658 30.3317284 18.24587274 33.62223499 18.29296875 36.9140625 C18.2890361 37.93303619 18.28510345 38.95200989 18.28105164 40.00186157 C18.37515651 44.60356825 18.4537187 47.960949 21.41918945 51.63037109 C25.45076428 55.33205166 28.13210743 55.34276465 33.453125 55.28125 C37.19739623 54.8677722 39.26209605 53.53256116 42 51 C44.75275596 46.16573246 44.35037598 40.85449435 44.4140625 35.44921875 C44.43342865 34.43527542 44.4527948 33.42133209 44.4727478 32.37666321 C44.53239426 29.14702697 44.57886951 25.9173548 44.625 22.6875 C44.66319349 20.49412532 44.70224602 18.30076542 44.7421875 16.10742188 C44.83808368 10.73840167 44.92217014 5.36931126 45 0 C50.94 0 56.88 0 63 0 C63 23.43 63 46.86 63 71 C57.39 71 51.78 71 46 71 C45.67 69.35 45.34 67.7 45 66 C43.700625 67.175625 43.700625 67.175625 42.375 68.375 C35.94085166 73.63253325 29.02619269 73.651611 21 73 C14.48610919 71.80377623 9.33647975 69.04608553 5 64 C1.76324655 58.80545343 -0.12814596 53.94944761 -0.11352539 47.79418945 C-0.11344986 46.73331619 -0.11337433 45.67244293 -0.11329651 44.579422 C-0.10813522 43.43559555 -0.10297394 42.2917691 -0.09765625 41.11328125 C-0.0962413 39.94113571 -0.09482635 38.76899017 -0.09336853 37.56132507 C-0.08776388 33.81169093 -0.07521056 30.06211615 -0.0625 26.3125 C-0.0574856 23.77278732 -0.05292259 21.2330737 -0.04882812 18.69335938 C-0.03779294 12.46221665 -0.02052515 6.2311184 0 0 Z " fill="#000000" transform="translate(273,66)"/>
<path d="M0 0 C1.42892578 -0.00386719 1.42892578 -0.00386719 2.88671875 -0.0078125 C5.3125 0.125 5.3125 0.125 7.3125 1.125 C7.3125 6.075 7.3125 11.025 7.3125 16.125 C4.28515625 16.54817708 1.2578125 16.97135417 -1.76953125 17.39453125 C-4.90214653 18.17873347 -5.92296924 18.46985435 -7.6875 21.125 C-8.3475 23.435 -9.0075 25.745 -9.6875 28.125 C-4.4075 28.125 0.8725 28.125 6.3125 28.125 C6.3125 33.405 6.3125 38.685 6.3125 44.125 C1.0325 44.125 -4.2475 44.125 -9.6875 44.125 C-9.6875 62.275 -9.6875 80.425 -9.6875 99.125 C-15.6275 99.125 -21.5675 99.125 -27.6875 99.125 C-27.6875 80.975 -27.6875 62.825 -27.6875 44.125 C-31.6475 44.125 -35.6075 44.125 -39.6875 44.125 C-39.6875 38.845 -39.6875 33.565 -39.6875 28.125 C-35.7275 28.125 -31.7675 28.125 -27.6875 28.125 C-27.749375 27.155625 -27.81125 26.18625 -27.875 25.1875 C-27.81204792 17.38144201 -24.88963225 11.41333866 -19.5859375 5.78515625 C-14.06767128 0.95951192 -7.12298017 -0.01943514 0 0 Z " fill="#000000" transform="translate(707.6875,37.875)"/>
<path d="M0 0 C0 4.95 0 9.9 0 15 C-3.02734375 15.42317708 -6.0546875 15.84635417 -9.08203125 16.26953125 C-12.21464653 17.05373347 -13.23546924 17.34485435 -15 20 C-15.66 22.31 -16.32 24.62 -17 27 C-11.72 27 -6.44 27 -1 27 C-1 32.28 -1 37.56 -1 43 C-6.28 43 -11.56 43 -17 43 C-17 61.15 -17 79.3 -17 98 C-22.94 98 -28.88 98 -35 98 C-35 79.85 -35 61.7 -35 43 C-38.96 43 -42.92 43 -47 43 C-47 37.72 -47 32.44 -47 27 C-43.04 27 -39.08 27 -35 27 C-34.9175 25.35 -34.835 23.7 -34.75 22 C-34.06932339 14.83449889 -32.10365713 9.71884931 -26.875 4.6875 C-20.22935725 -0.50175721 -7.93395545 -3.96697772 0 0 Z " fill="#89888D" transform="translate(522,39)"/>
<path d="M0 0 C5.94 0 11.88 0 18 0 C18 5.28 18 10.56 18 16 C23.61 16 29.22 16 35 16 C35 21.28 35 26.56 35 32 C29.39 32 23.78 32 18 32 C18.07422468 36.44836205 18.15724481 40.89479437 18.26245117 45.34228516 C18.29557926 46.85324904 18.32364855 48.36433307 18.34643555 49.87548828 C18.38020681 52.05553082 18.43252896 54.23448439 18.48828125 56.4140625 C18.51446533 57.7232666 18.54064941 59.0324707 18.56762695 60.38134766 C19.03028297 64.25344678 19.8974008 66.7276449 22 70 C25.15484305 71.15371905 25.15484305 71.15371905 28.6875 71.375 C30.770625 71.58125 32.85375 71.7875 35 72 C35 77.28 35 82.56 35 88 C14.0784717 88.65894577 14.0784717 88.65894577 7.203125 82.3515625 C0.61206138 75.16416455 -0.16636897 67.4653528 -0.09765625 57.9765625 C-0.0962413 57.23038666 -0.09482635 56.48421082 -0.09336853 55.71542358 C-0.08780874 53.35190682 -0.07526389 50.98848773 -0.0625 48.625 C-0.0574798 47.01432429 -0.0529178 45.40364709 -0.04882812 43.79296875 C-0.03785251 39.86194201 -0.02061596 35.93098752 0 32 C-3.96 32 -7.92 32 -12 32 C-12 26.72 -12 21.44 -12 16 C-8.58203125 14.97460938 -8.58203125 14.97460938 -5.1640625 13.94921875 C-2.66815371 13.08631815 -2.66815371 13.08631815 -1 10 C-0.54398739 7.49103314 -0.54398739 7.49103314 -0.375 4.8125 C-0.25125 3.224375 -0.1275 1.63625 0 0 Z " fill="#000000" transform="translate(430,50)"/>
<path d="M0 0 C5.94 0 11.88 0 18 0 C18 32.67 18 65.34 18 99 C12.06 99 6.12 99 0 99 C0 66.33 0 33.66 0 0 Z " fill="#000000" transform="translate(388,38)"/>
<path d="M0 0 C0 5.28 0 10.56 0 16 C-2.02125 16.226875 -4.0425 16.45375 -6.125 16.6875 C-12.03238352 17.60671202 -15.14121757 18.41117766 -19 23 C-21.32050228 28.28418175 -21.3420708 33.32317056 -21.4140625 38.9921875 C-21.43342865 39.93812775 -21.4527948 40.88406799 -21.4727478 41.8586731 C-21.53227049 44.86402522 -21.57881946 47.86941621 -21.625 50.875 C-21.66320492 52.91928704 -21.70225811 54.96355842 -21.7421875 57.0078125 C-21.83794954 62.0050803 -21.92208114 67.00242342 -22 72 C-27.94 72 -33.88 72 -40 72 C-40 48.57 -40 25.14 -40 1 C-34.39 1 -28.78 1 -23 1 C-22.67 2.98 -22.34 4.96 -22 7 C-20.700625 5.824375 -20.700625 5.824375 -19.375 4.625 C-13.30617654 -0.35708066 -7.56865913 -0.20455835 0 0 Z " fill="#88888C" transform="translate(661,65)"/>
<path d="M0 0 C0 5.28 0 10.56 0 16 C-3.22265625 16.42317708 -6.4453125 16.84635417 -9.66796875 17.26953125 C-13.18700508 18.04099642 -15.2216969 18.71113889 -18 21 C-21.13992539 26.79876391 -21.46675033 31.78973147 -21.51171875 38.30859375 C-21.52966995 39.27531509 -21.54762115 40.24203644 -21.56611633 41.23805237 C-21.61999511 44.30449147 -21.65404309 47.37077692 -21.6875 50.4375 C-21.72069286 52.5254119 -21.75518433 54.61330359 -21.79101562 56.70117188 C-21.87570875 61.80066999 -21.94262679 66.90012431 -22 72 C-27.94 72 -33.88 72 -40 72 C-40 48.57 -40 25.14 -40 1 C-34.39 1 -28.78 1 -23 1 C-22.67 2.98 -22.34 4.96 -22 7 C-21.505 6.401875 -21.01 5.80375 -20.5 5.1875 C-14.34411002 -0.19890373 -7.8986544 -0.3291106 0 0 Z " fill="#000000" transform="translate(767,65)"/>
<path d="M0 0 C0.90136185 -0.00960754 1.80272369 -0.01921509 2.73139954 -0.02911377 C3.7032872 -0.03336365 4.67517487 -0.03761353 5.67651367 -0.04199219 C7.18032845 -0.0505423 7.18032845 -0.0505423 8.71452332 -0.05926514 C10.83701523 -0.06871379 12.9595218 -0.07524858 15.08203125 -0.07910156 C18.32146969 -0.0887983 21.56027126 -0.11981967 24.79956055 -0.15136719 C26.86270783 -0.15789832 28.92585964 -0.16314836 30.98901367 -0.16699219 C31.95482864 -0.17933899 32.92064362 -0.19168579 33.91572571 -0.20440674 C39.17111356 -0.18709051 43.07093337 0.05372102 47.53198242 3.16113281 C51.80098476 8.78920785 52.13004274 15.48044714 51.96948242 22.28613281 C51.97657227 23.14078125 51.98366211 23.99542969 51.9909668 24.87597656 C51.92332555 31.65050781 50.81637759 36.66814949 46.09619141 41.81933594 C41.74977072 45.29308761 37.00276232 44.87929259 31.65698242 44.82519531 C30.61429199 44.82997894 29.57160156 44.83476257 28.49731445 44.83969116 C26.29856859 44.84308505 24.09977191 44.83391859 21.90112305 44.81298828 C18.54255267 44.78621707 15.1873243 44.81275522 11.82885742 44.84472656 C9.68822507 44.84142238 7.54759479 44.83501596 5.40698242 44.82519531 C3.90675537 44.84037704 3.90675537 44.84037704 2.3762207 44.85586548 C-2.08585182 44.78114429 -5.43128775 44.69852028 -9.02270508 41.86962891 C-14.60209043 35.68974661 -13.89999695 29.91332886 -13.96801758 21.84863281 C-14.00926758 20.63755859 -14.05051758 19.42648438 -14.09301758 18.17871094 C-14.18059702 8.17823289 -14.18059702 8.17823289 -10.62426758 3.86816406 C-7.3997052 0.66217404 -4.45505083 0.03838731 0 0 Z M-4.46801758 10.16113281 C-4.92396704 14.14268617 -4.7920517 18.1564841 -4.78051758 22.16113281 C-4.79663086 23.28003906 -4.81274414 24.39894531 -4.8293457 25.55175781 C-4.82999023 26.61910156 -4.83063477 27.68644531 -4.83129883 28.78613281 C-4.83427979 29.76839844 -4.83726074 30.75066406 -4.84033203 31.76269531 C-4.71746826 32.55417969 -4.59460449 33.34566406 -4.46801758 34.16113281 C-0.51866244 36.79403624 2.88703995 36.44858207 7.46948242 36.42675781 C8.34596436 36.42867126 9.22244629 36.43058472 10.12548828 36.43255615 C11.97811165 36.4339168 13.83074458 36.43022875 15.68334961 36.421875 C18.52113231 36.41117373 21.35828194 36.42177429 24.19604492 36.43457031 C25.99552549 36.4332487 27.79500566 36.43068626 29.59448242 36.42675781 C30.44453857 36.43080627 31.29459473 36.43485474 32.17041016 36.43902588 C37.14716786 36.40526215 37.14716786 36.40526215 41.53198242 34.16113281 C41.98162312 31.6769959 41.98162312 31.6769959 41.89526367 28.78613281 C41.89461914 27.71878906 41.89397461 26.65144531 41.89331055 25.55175781 C41.87719727 24.43285156 41.86108398 23.31394531 41.84448242 22.16113281 C41.84770508 21.04222656 41.85092773 19.92332031 41.85424805 18.77050781 C42.23018308 12.89865819 42.23018308 12.89865819 39.53198242 8.16113281 C37.64899119 7.85652253 37.64899119 7.85652253 35.48120117 7.90234375 C34.64693604 7.89603943 33.8126709 7.88973511 32.953125 7.88323975 C32.05102295 7.88728821 31.1489209 7.89133667 30.21948242 7.89550781 C29.29482178 7.89359436 28.37016113 7.89168091 27.41748047 7.88970947 C25.46052783 7.88834715 23.50356618 7.89204685 21.54663086 7.90039062 C18.54414653 7.91108947 15.54226056 7.9004969 12.53979492 7.88769531 C10.6413561 7.8890169 8.74291764 7.89157927 6.84448242 7.89550781 C5.94238037 7.89145935 5.04027832 7.88741089 4.11083984 7.88323975 C3.27657471 7.88954407 2.44230957 7.89584839 1.58276367 7.90234375 C0.84711182 7.90393494 0.11145996 7.90552612 -0.64648438 7.90716553 C-2.71815972 8.0094825 -2.71815972 8.0094825 -4.46801758 10.16113281 Z " fill="#000000" transform="translate(31.468017578125,17.8388671875)"/>
<path d="M0 0 C5.94 0 11.88 0 18 0 C18 23.43 18 46.86 18 71 C12.06 71 6.12 71 0 71 C0 47.57 0 24.14 0 0 Z " fill="#000000" transform="translate(353,66)"/>
<path d="M0 0 C5.94 0 11.88 0 18 0 C18 6.27 18 12.54 18 19 C12.06 19 6.12 19 0 19 C0 12.73 0 6.46 0 0 Z " fill="#000000" transform="translate(353,40)"/>
</svg>
